<svg width="157" height="37" viewBox="0 0 157 37" fill="none" xmlns="http://www.w3.org/2000/svg">
<g clip-path="url(#clip0_1_838)">
<path fill-rule="evenodd" clip-rule="evenodd" d="M2.81472 21.8593C4.61779 17.5965 7.19792 13.7692 10.4835 10.4836C13.7691 7.19799 17.5964 4.6178 21.8592 2.81472C26.2751 0.947042 30.9631 0 35.7931 0C36.389 0 36.8722 0.483161 36.8722 1.07913V8.57036C36.8722 9.16632 36.389 9.64948 35.7931 9.64948C28.8098 9.64948 22.2445 12.3689 17.3068 17.3068C12.3688 22.2447 9.64941 28.81 9.64941 35.7931C9.64941 36.3891 9.16625 36.8723 8.57028 36.8723H1.07905C0.483086 36.8723 -7.62939e-05 36.3891 -7.62939e-05 35.7931C-7.62939e-05 30.9633 0.946964 26.2752 2.81472 21.8593ZM35.793 15.0801C36.3889 15.0801 36.8721 15.5632 36.8721 16.1592V23.6504C36.8721 24.2464 36.3889 24.7295 35.793 24.7295C32.8188 24.7295 29.9863 25.8862 27.8175 27.9863C25.6405 30.0945 24.4415 32.867 24.4415 35.7934C24.4415 36.3894 23.9583 36.8725 23.3624 36.8725H15.8711C15.2751 36.8725 14.7919 36.3894 14.7919 35.7934C14.7919 30.2607 16.9465 25.0591 20.8587 21.1468C24.7143 17.2913 30.1576 15.0801 35.793 15.0801ZM36.8528 32.7688C36.8528 30.5168 35.0206 28.6846 32.7686 28.6846C30.5166 28.6846 28.6843 30.5168 28.6843 32.7688C28.6843 35.0209 30.5165 36.8531 32.7686 36.8531C35.0206 36.8531 36.8528 35.021 36.8528 32.7688Z" fill="url(#paint0_linear_1_838)"/>
<path d="M32.7687 36.8533C30.5166 36.8533 28.6845 35.0211 28.6845 32.7691C28.6845 31.6346 29.1498 30.607 29.8991 29.8662L35.6798 35.6303C34.9383 36.3844 33.9075 36.8533 32.7687 36.8533Z" fill="#FE5C53"/>
<path d="M27.8175 27.9862C25.6405 30.0944 24.4415 32.867 24.4415 35.7934C24.4415 36.3893 23.9583 36.8725 23.3624 36.8725H15.8711C15.2751 36.8725 14.7919 36.3893 14.7919 35.7934C14.7919 30.2607 16.9465 25.0591 20.8587 21.1468C20.908 21.0975 20.9586 21.0498 21.0083 21.001L27.9182 27.891C27.8846 27.9227 27.8507 27.954 27.8175 27.9862Z" fill="#FE5C53"/>
<path d="M9.64928 35.793C9.64928 36.3889 9.16612 36.8721 8.57016 36.8721H1.07892C0.48296 36.8721 -0.000202179 36.3889 -0.000202179 35.793C-0.000202179 30.963 0.946838 26.275 2.81459 21.8591C4.61558 17.6011 7.19196 13.7777 10.4722 10.4946L17.3051 17.308C12.3682 22.2459 9.64928 28.8105 9.64928 35.793Z" fill="#FE5C53"/>
</g>
<path d="M49.6152 23.897V20.9115H61.1269V23.897H49.6152ZM45.2848 27.6895L53.4614 10.2874H57.3345L65.5917 27.6895H61.6917L54.5372 12.0088H56.2586L49.1579 27.6895H45.2848ZM67.9065 8.94256H71.4031V27.6895H67.9065V8.94256ZM82.6727 14.3219L74.7113 21.3419L74.792 19.1901L83.2913 27.6895H78.8534L71.4837 20.1853L77.912 14.3219H82.6727ZM97.3425 27.6895V20.3467C97.3425 19.6115 97.2169 19.0019 96.9659 18.5177C96.7149 18.0336 96.3114 17.666 95.7556 17.415C95.2176 17.1639 94.4914 17.0384 93.5769 17.0384C92.6983 17.0384 91.9004 17.2088 91.1832 17.5495C90.4659 17.8722 89.8832 18.3026 89.4349 18.8405C88.9866 19.3605 88.7356 19.9163 88.6818 20.5081L88.6549 19.0288C88.7445 18.437 88.9507 17.8453 89.2735 17.2536C89.5963 16.6619 90.0266 16.1239 90.5645 15.6398C91.1025 15.1557 91.748 14.7701 92.5011 14.4832C93.2721 14.1784 94.1328 14.026 95.0832 14.026C95.908 14.026 96.67 14.1336 97.3694 14.3488C98.0687 14.546 98.6783 14.8598 99.1983 15.2901C99.7183 15.7205 100.122 16.2584 100.409 16.9039C100.696 17.5315 100.839 18.2757 100.839 19.1363V27.6895H97.3425ZM85.3735 27.6895V8.94256H88.87V27.6895H85.3735ZM110.526 27.9853C109.199 27.9853 107.989 27.6984 106.895 27.1246C105.819 26.5329 104.958 25.717 104.313 24.677C103.685 23.6191 103.371 22.3998 103.371 21.0191C103.371 19.6026 103.694 18.3743 104.34 17.3343C104.985 16.2943 105.855 15.4874 106.949 14.9136C108.06 14.3219 109.315 14.026 110.714 14.026C112.256 14.026 113.493 14.3398 114.426 14.9674C115.376 15.577 116.066 16.4108 116.497 17.4688C116.927 18.5267 117.142 19.7101 117.142 21.0191C117.142 21.8081 117.017 22.615 116.766 23.4398C116.515 24.2467 116.129 24.9998 115.609 25.6991C115.089 26.3805 114.408 26.9363 113.565 27.3667C112.722 27.7791 111.709 27.9853 110.526 27.9853ZM111.655 25.2957C112.713 25.2957 113.628 25.1163 114.399 24.7577C115.17 24.3991 115.762 23.897 116.174 23.2515C116.586 22.606 116.793 21.8619 116.793 21.0191C116.793 20.1046 116.577 19.3336 116.147 18.706C115.735 18.0605 115.143 17.5763 114.372 17.2536C113.619 16.9129 112.713 16.7426 111.655 16.7426C110.167 16.7426 109.011 17.137 108.186 17.926C107.361 18.697 106.949 19.7281 106.949 21.0191C106.949 21.8798 107.146 22.6329 107.54 23.2784C107.935 23.906 108.482 24.3991 109.181 24.7577C109.898 25.1163 110.723 25.2957 111.655 25.2957ZM116.793 14.3219H120.289V27.6895H117.035C117.035 27.6895 117.008 27.5191 116.954 27.1784C116.918 26.8198 116.882 26.3715 116.846 25.8336C116.811 25.2957 116.793 24.7667 116.793 24.2467V14.3219ZM122.916 23.2515H126.143C126.341 23.8612 126.744 24.3632 127.354 24.7577C127.981 25.1343 128.797 25.3226 129.801 25.3226C130.483 25.3226 131.012 25.2598 131.388 25.1343C131.765 25.0088 132.025 24.8295 132.168 24.5963C132.312 24.3453 132.383 24.0674 132.383 23.7626C132.383 23.386 132.267 23.0991 132.034 22.9019C131.801 22.6867 131.442 22.5163 130.958 22.3908C130.474 22.2653 129.855 22.1488 129.102 22.0412C128.349 21.9157 127.623 21.7632 126.923 21.5839C126.224 21.4046 125.605 21.1715 125.068 20.8846C124.53 20.5798 124.099 20.2032 123.777 19.755C123.472 19.2888 123.319 18.7239 123.319 18.0605C123.319 17.415 123.472 16.8412 123.777 16.3391C124.099 15.837 124.539 15.4157 125.094 15.075C125.668 14.7343 126.332 14.4743 127.085 14.295C127.856 14.1157 128.681 14.026 129.559 14.026C130.886 14.026 131.989 14.2232 132.868 14.6177C133.746 14.9943 134.401 15.5322 134.831 16.2315C135.279 16.9129 135.503 17.7019 135.503 18.5984H132.41C132.267 17.935 131.98 17.4598 131.55 17.1729C131.119 16.8681 130.456 16.7157 129.559 16.7157C128.681 16.7157 128.017 16.8501 127.569 17.1191C127.121 17.3881 126.897 17.7557 126.897 18.2219C126.897 18.5984 127.031 18.8943 127.3 19.1095C127.587 19.3067 127.999 19.4681 128.537 19.5936C129.093 19.7191 129.783 19.8536 130.608 19.997C131.308 20.1405 131.971 20.3019 132.599 20.4812C133.244 20.6605 133.818 20.8936 134.32 21.1805C134.822 21.4495 135.217 21.817 135.503 22.2832C135.808 22.7315 135.961 23.3053 135.961 24.0046C135.961 24.8653 135.71 25.5915 135.208 26.1832C134.723 26.775 134.024 27.2322 133.11 27.555C132.195 27.8598 131.101 28.0122 129.828 28.0122C128.699 28.0122 127.721 27.8957 126.897 27.6626C126.09 27.4115 125.417 27.0977 124.879 26.7212C124.341 26.3267 123.92 25.9143 123.615 25.4839C123.328 25.0357 123.131 24.6143 123.023 24.2198C122.916 23.8253 122.88 23.5026 122.916 23.2515ZM150.847 27.6895V20.3467C150.847 19.6115 150.721 19.0019 150.47 18.5177C150.219 18.0336 149.816 17.666 149.26 17.415C148.722 17.1639 147.996 17.0384 147.081 17.0384C146.203 17.0384 145.405 17.2088 144.687 17.5495C143.97 17.8722 143.387 18.3026 142.939 18.8405C142.491 19.3605 142.24 19.9163 142.186 20.5081L142.159 19.0288C142.249 18.437 142.455 17.8453 142.778 17.2536C143.1 16.6619 143.531 16.1239 144.069 15.6398C144.607 15.1557 145.252 14.7701 146.005 14.4832C146.776 14.1784 147.637 14.026 148.587 14.026C149.412 14.026 150.174 14.1336 150.874 14.3488C151.573 14.546 152.183 14.8598 152.703 15.2901C153.223 15.7205 153.626 16.2584 153.913 16.9039C154.2 17.5315 154.343 18.2757 154.343 19.1363V27.6895H150.847ZM138.878 27.6895V8.94256H142.374V27.6895H138.878Z" fill="#222222"/>
<defs>
<linearGradient id="paint0_linear_1_838" x1="18.436" y1="0" x2="18.436" y2="36.8725" gradientUnits="userSpaceOnUse">
<stop stop-color="#C51F2C"/>
<stop offset="1" stop-color="#FE5C53"/>
</linearGradient>
<clipPath id="clip0_1_838">
<rect width="36.8723" height="36.8723" fill="white" transform="matrix(-1 0 0 1 36.8722 0)"/>
</clipPath>
</defs>
</svg>
