<svg width="48" height="48" viewBox="0 0 48 48" fill="none" xmlns="http://www.w3.org/2000/svg">
<g clip-path="url(#clip0_1_804)">
<path d="M4.8 48H24C26.6499 47.9974 28.7974 45.8499 28.8 43.2C28.8 42.7582 28.4418 42.4 28 42.4C27.5582 42.4 27.2 42.7582 27.2 43.2C27.2 44.9673 25.7673 46.4 24 46.4H4.8C3.03269 46.4 1.6 44.9673 1.6 43.2V4.8C1.6 3.03269 3.03269 1.6 4.8 1.6H5.1056L6.8424 5.0736C7.24652 5.88874 8.07898 6.40318 8.9888 6.4H19.8112C20.721 6.40318 21.5535 5.88874 21.9576 5.0736L23.6944 1.6H24C25.7673 1.6 27.2 3.03269 27.2 4.8V6.4C27.2 6.84183 27.5582 7.2 28 7.2C28.4418 7.2 28.8 6.84183 28.8 6.4V4.8C28.7974 2.15013 26.6499 0.0026459 24 0H4.8C2.15013 0.0026459 0.0026459 2.15013 0 4.8V43.2C0.0026459 45.8499 2.15013 47.9974 4.8 48ZM20.5264 4.3576C20.3919 4.62938 20.1145 4.80097 19.8112 4.8H8.9888C8.68555 4.80097 8.40814 4.62938 8.2736 4.3576L6.8944 1.6H21.9056L20.5264 4.3576Z" fill="#4D4D4D"/>
<path d="M20.8 44.8002C21.2418 44.8002 21.6 44.442 21.6 44.0002C21.6 43.5584 21.2418 43.2002 20.8 43.2002H8.00001C7.55818 43.2002 7.20001 43.5584 7.20001 44.0002C7.20001 44.442 7.55818 44.8002 8.00001 44.8002H20.8Z" fill="#4D4D4D"/>
<path d="M43.0888 17.04C42.8458 16.41 42.2384 15.996 41.5632 16H22.4368C21.7616 15.996 21.1542 16.41 20.9112 17.04C20.8459 17.2143 20.8115 17.3987 20.8096 17.5848C20.8096 17.6016 20.8 17.616 20.8 17.6328V32C20.8 32.8837 21.5163 33.6 22.4 33.6H41.6C42.4836 33.6 43.2 32.8837 43.2 32V17.632C43.2 17.6152 43.1912 17.6008 43.1904 17.584C43.1884 17.3982 43.154 17.2141 43.0888 17.04ZM41.6 17.6248C41.6 17.6248 41.6 17.6288 41.5896 17.636L31.972 26.3896L22.4368 17.6L41.6 17.6248ZM22.4 32V19.7976L30.892 27.5696C31.5211 28.1385 32.4789 28.1385 33.108 27.5696L41.6 19.7976V32H22.4Z" fill="#4D4D4D"/>
<path d="M43.2 8.7998H20.8C18.1501 8.80245 16.0027 10.9499 16 13.5998V18.7198L7.2416 23.391C6.72247 23.6698 6.39859 24.2114 6.39859 24.8006C6.39859 25.3899 6.72247 25.9314 7.2416 26.2102L16 30.8798V35.9998C16.0027 38.6497 18.1501 40.7972 20.8 40.7998H43.2C45.8499 40.7972 47.9974 38.6497 48 35.9998V13.5998C47.9974 10.9499 45.8499 8.80245 43.2 8.7998ZM46.4 35.9998C46.4 37.7671 44.9673 39.1998 43.2 39.1998H20.8C19.0327 39.1998 17.6 37.7671 17.6 35.9998V30.3998C17.6 30.1045 17.4373 29.8333 17.1768 29.6942L8 24.7998L17.1792 19.9038C17.4382 19.7644 17.5999 19.494 17.6 19.1998V13.5998C17.6 11.8325 19.0327 10.3998 20.8 10.3998H43.2C44.9673 10.3998 46.4 11.8325 46.4 13.5998V35.9998Z" fill="#4D4D4D"/>
</g>
<defs>
<clipPath id="clip0_1_804">
<rect width="48" height="48" fill="white"/>
</clipPath>
</defs>
</svg>
