<svg width="48" height="48" viewBox="0 0 48 48" fill="none" xmlns="http://www.w3.org/2000/svg">
<g clip-path="url(#clip0_1_785)">
<path d="M4.8 48H24C25.2726 47.9987 26.4928 47.4926 27.3927 46.5927C28.2926 45.6928 28.7987 44.4726 28.8 43.2C28.8 42.9878 28.7157 42.7843 28.5657 42.6343C28.4157 42.4843 28.2122 42.4 28 42.4C27.7878 42.4 27.5843 42.4843 27.4343 42.6343C27.2843 42.7843 27.2 42.9878 27.2 43.2C27.2 44.0487 26.8629 44.8626 26.2627 45.4627C25.6626 46.0629 24.8487 46.4 24 46.4H4.8C3.95131 46.4 3.13737 46.0629 2.53726 45.4627C1.93714 44.8626 1.6 44.0487 1.6 43.2V4.8C1.6 3.95131 1.93714 3.13737 2.53726 2.53726C3.13737 1.93714 3.95131 1.6 4.8 1.6H5.1056L6.8424 5.0736C7.04049 5.47317 7.34659 5.80923 7.72597 6.04367C8.10534 6.27811 8.54283 6.40156 8.9888 6.4H19.8112C20.2572 6.40156 20.6947 6.27811 21.074 6.04367C21.4534 5.80923 21.7595 5.47317 21.9576 5.0736L23.6944 1.6H24C24.8487 1.6 25.6626 1.93714 26.2627 2.53726C26.8629 3.13737 27.2 3.95131 27.2 4.8V6.4C27.2 6.61217 27.2843 6.81566 27.4343 6.96569C27.5843 7.11571 27.7878 7.2 28 7.2C28.2122 7.2 28.4157 7.11571 28.5657 6.96569C28.7157 6.81566 28.8 6.61217 28.8 6.4V4.8C28.7987 3.52735 28.2926 2.30719 27.3927 1.40729C26.4928 0.507392 25.2726 0.00127074 24 0L4.8 0C3.52735 0.00127074 2.30719 0.507392 1.40729 1.40729C0.507392 2.30719 0.00127074 3.52735 0 4.8L0 43.2C0.00127074 44.4726 0.507392 45.6928 1.40729 46.5927C2.30719 47.4926 3.52735 47.9987 4.8 48ZM20.5264 4.3576C20.4605 4.49082 20.3585 4.60288 20.2321 4.68108C20.1057 4.75928 19.9598 4.80048 19.8112 4.8H8.9888C8.84015 4.80048 8.69435 4.75928 8.56793 4.68108C8.44152 4.60288 8.33955 4.49082 8.2736 4.3576L6.8944 1.6H21.9056L20.5264 4.3576Z" fill="#4D4D4D"/>
<path d="M20.8 44.8002C21.0122 44.8002 21.2157 44.7159 21.3657 44.5659C21.5157 44.4159 21.6 44.2124 21.6 44.0002C21.6 43.788 21.5157 43.5845 21.3657 43.4345C21.2157 43.2845 21.0122 43.2002 20.8 43.2002H8.00001C7.78784 43.2002 7.58436 43.2845 7.43433 43.4345C7.2843 43.5845 7.20001 43.788 7.20001 44.0002C7.20001 44.2124 7.2843 44.4159 7.43433 44.5659C7.58436 44.7159 7.78784 44.8002 8.00001 44.8002H20.8Z" fill="#4D4D4D"/>
<path d="M39.9712 26.6304C39.361 26.0474 38.5495 25.7222 37.7056 25.7222C36.8617 25.7222 36.0502 26.0474 35.44 26.6304L33.8544 28.216C33.8221 28.2509 33.7788 28.2736 33.7316 28.2802C33.6845 28.2868 33.6366 28.2768 33.596 28.252C31.6447 26.858 29.9374 25.151 28.5432 23.2C28.5199 23.1604 28.5107 23.1141 28.5171 23.0686C28.5235 23.0231 28.5451 22.9812 28.5784 22.9496L30.168 21.36C30.7677 20.7585 31.1045 19.9437 31.1045 19.0944C31.1045 18.245 30.7677 17.4302 30.168 16.8288L27.8768 14.536C27.2667 13.9537 26.4557 13.6289 25.6124 13.6289C24.7691 13.6289 23.9581 13.9537 23.348 14.536C21.156 16.728 20.308 20.1552 21.0744 23.7072C21.5912 26.0848 22.888 28.26 25.1672 30.5648C25.8872 31.2584 25.748 31.1328 26.2432 31.6408C28.5352 33.908 30.7112 35.2048 33.092 35.7208C36.372 36.424 39.908 35.8008 42.26 33.4464C42.558 33.1491 42.7944 32.796 42.9558 32.4072C43.1171 32.0184 43.2001 31.6017 43.2001 31.1808C43.2001 30.7598 43.1171 30.3431 42.9558 29.9543C42.7944 29.5655 42.558 29.2124 42.26 28.9152L39.9712 26.6304ZM41.1304 32.32C40.4019 33.021 39.5387 33.5668 38.593 33.9244C37.6473 34.2819 36.6389 34.4437 35.6288 34.4C32.2688 34.4 29.7504 32.8616 27.3792 30.5168C26.5632 29.6744 26.6 29.7312 26.2928 29.4312C24.5123 27.8086 23.243 25.7025 22.64 23.3704C21.9872 20.3536 22.6752 17.4752 24.48 15.6696C24.6287 15.5202 24.8054 15.4017 25 15.3208C25.1946 15.2399 25.4033 15.1983 25.614 15.1983C25.8247 15.1983 26.0334 15.2399 26.228 15.3208C26.4226 15.4017 26.5993 15.5202 26.748 15.6696L29.04 17.9584C29.1895 18.107 29.3081 18.2838 29.389 18.4785C29.47 18.6732 29.5117 18.8819 29.5117 19.0928C29.5117 19.3036 29.47 19.5124 29.389 19.707C29.3081 19.9017 29.1895 20.0785 29.04 20.2272L27.44 21.8208C27.1365 22.1209 26.9501 22.5195 26.9145 22.9449C26.8788 23.3702 26.9963 23.7943 27.2456 24.1408C28.7392 26.2285 30.5663 28.0561 32.6536 29.5504C33.0007 29.8009 33.4261 29.9188 33.8527 29.8828C34.2793 29.8469 34.6789 29.6594 34.9792 29.3544L36.5712 27.76C36.8722 27.4594 37.2802 27.2906 37.7056 27.2906C38.131 27.2906 38.539 27.4594 38.84 27.76L41.1288 30.0488C41.2787 30.1974 41.3978 30.3742 41.4791 30.569C41.5604 30.7639 41.6023 30.9729 41.6025 31.184C41.6026 31.3951 41.561 31.6042 41.48 31.7992C41.3989 31.9941 41.2801 32.1711 41.1304 32.32Z" fill="#4D4D4D"/>
<path d="M43.2 8.7998H20.8C19.5274 8.80108 18.3072 9.3072 17.4073 10.2071C16.5074 11.107 16.0013 12.3272 16 13.5998V18.7198L7.2416 23.391C6.98681 23.5278 6.77387 23.7312 6.62542 23.9794C6.47698 24.2276 6.39859 24.5114 6.39859 24.8006C6.39859 25.0898 6.47698 25.3736 6.62542 25.6218C6.77387 25.87 6.98681 26.0734 7.2416 26.2102L16 30.8798V35.9998C16.0013 37.2725 16.5074 38.4926 17.4073 39.3925C18.3072 40.2924 19.5274 40.7985 20.8 40.7998H43.2C44.4727 40.7985 45.6928 40.2924 46.5927 39.3925C47.4926 38.4926 47.9987 37.2725 48 35.9998V13.5998C47.9987 12.3272 47.4926 11.107 46.5927 10.2071C45.6928 9.3072 44.4727 8.80108 43.2 8.7998ZM46.4 35.9998C46.4 36.8485 46.0629 37.6624 45.4627 38.2625C44.8626 38.8627 44.0487 39.1998 43.2 39.1998H20.8C19.9513 39.1998 19.1374 38.8627 18.5373 38.2625C17.9371 37.6624 17.6 36.8485 17.6 35.9998V30.3998C17.6 30.2549 17.5606 30.1127 17.4861 29.9884C17.4115 29.8642 17.3046 29.7625 17.1768 29.6942L8 24.7998L17.1792 19.9038C17.3064 19.8354 17.4126 19.7338 17.4867 19.6098C17.5608 19.4859 17.5999 19.3442 17.6 19.1998V13.5998C17.6 12.7511 17.9371 11.9372 18.5373 11.3371C19.1374 10.7369 19.9513 10.3998 20.8 10.3998H43.2C44.0487 10.3998 44.8626 10.7369 45.4627 11.3371C46.0629 11.9372 46.4 12.7511 46.4 13.5998V35.9998Z" fill="#4D4D4D"/>
</g>
<defs>
<clipPath id="clip0_1_785">
<rect width="48" height="48" fill="white"/>
</clipPath>
</defs>
</svg>
