<svg width="56" height="56" viewBox="0 0 56 56" fill="none" xmlns="http://www.w3.org/2000/svg">
<g clip-path="url(#clip0_1271_554)">
<path d="M27.9997 32.6665C27.3557 32.6665 26.833 32.1438 26.833 31.4998V12.8332C26.833 12.1892 27.3557 11.6665 27.9997 11.6665C28.6437 11.6665 29.1663 12.1892 29.1663 12.8332V31.4998C29.1663 32.1438 28.6437 32.6665 27.9997 32.6665Z" fill="#D4212F"/>
<path d="M23.1933 17.29C22.827 17.29 22.463 17.1173 22.239 16.793C21.4293 15.6356 21 14.266 21 12.8333C21 11.4006 21.4293 10.031 22.239 8.87364C22.6077 8.34164 23.3357 8.22031 23.863 8.58664C24.3903 8.95531 24.5187 9.68331 24.1477 10.2106C23.6157 10.976 23.3333 11.8813 23.3333 12.8333C23.3333 13.7853 23.6157 14.6906 24.15 15.456C24.521 15.9833 24.3927 16.7113 23.8653 17.08C23.66 17.2223 23.4267 17.29 23.1933 17.29Z" fill="#D4212F"/>
<path d="M32.8066 17.29C32.5732 17.29 32.3422 17.2223 32.1369 17.08C31.6096 16.7113 31.4812 15.9833 31.8522 15.456C32.3842 14.6906 32.6666 13.7853 32.6666 12.8333C32.6666 11.8813 32.3842 10.976 31.8499 10.2106C31.4789 9.68331 31.6072 8.95531 32.1346 8.58664C32.6642 8.22031 33.3922 8.34164 33.7586 8.87364C34.5706 10.031 34.9999 11.4006 34.9999 12.8333C34.9999 14.266 34.5706 15.6356 33.7609 16.793C33.5346 17.1173 33.1729 17.29 32.8066 17.29Z" fill="#D4212F"/>
<path d="M17.4067 21.2569C17.0357 21.2569 16.6693 21.0796 16.443 20.7482C14.8447 18.4032 14 15.6662 14 12.8336C14 10.0009 14.8447 7.26391 16.443 4.91891C16.807 4.38458 17.5397 4.25391 18.0623 4.61324C18.5967 4.97491 18.732 5.70058 18.3703 6.23491C17.038 8.19024 16.3333 10.4722 16.3333 12.8336C16.3333 15.1949 17.038 17.4769 18.3703 19.4322C18.732 19.9666 18.5967 20.6922 18.0623 21.0539C17.8617 21.1916 17.6353 21.2569 17.4067 21.2569Z" fill="#D4212F"/>
<path d="M38.5938 21.2567C38.3651 21.2567 38.1388 21.1914 37.9381 21.0537C37.4038 20.6921 37.2685 19.9664 37.6301 19.4321C38.9625 17.4767 39.6671 15.1947 39.6671 12.8334C39.6671 10.4721 38.9625 8.19006 37.6301 6.23473C37.2685 5.70039 37.4038 4.97473 37.9381 4.61306C38.4678 4.25606 39.1958 4.38673 39.5574 4.91873C41.1558 7.26373 42.0004 10.0007 42.0004 12.8334C42.0004 15.6661 41.1558 18.4031 39.5574 20.7481C39.3311 21.0771 38.9648 21.2567 38.5938 21.2567Z" fill="#D4212F"/>
<path d="M11.6433 25.1998C11.2723 25.1998 10.9083 25.0225 10.682 24.6935C8.274 21.1841 7 17.0845 7 12.8331C7 8.58179 8.274 4.48212 10.682 0.972789C11.046 0.440789 11.774 0.310122 12.3037 0.671789C12.8357 1.03579 12.9687 1.76146 12.6047 2.29346C10.465 5.41079 9.33333 9.05546 9.33333 12.8331C9.33333 16.6108 10.465 20.2555 12.6047 23.3728C12.9687 23.9048 12.8357 24.6305 12.3037 24.9945C12.103 25.1321 11.872 25.1998 11.6433 25.1998Z" fill="#D4212F"/>
<path d="M44.3568 25.1998C44.1281 25.1998 43.8995 25.1345 43.6965 24.9945C43.1645 24.6305 43.0315 23.9048 43.3955 23.3728C45.5351 20.2555 46.6668 16.6108 46.6668 12.8331C46.6668 9.05546 45.5351 5.41079 43.3955 2.29346C43.0315 1.76146 43.1645 1.03579 43.6965 0.671789C44.2308 0.310122 44.9565 0.440789 45.3181 0.972789C47.7261 4.48212 49.0001 8.58179 49.0001 12.8331C49.0001 17.0845 47.7261 21.1841 45.3181 24.6935C45.0918 25.0225 44.7278 25.1998 44.3568 25.1998Z" fill="#D4212F"/>
<path d="M50.1667 51.3335H5.83333C2.61567 51.3335 0 48.7155 0 45.5002V36.1668C0 32.9515 2.61567 30.3335 5.83333 30.3335H50.1667C53.3843 30.3335 56 32.9515 56 36.1668V45.5002C56 48.7155 53.3843 51.3335 50.1667 51.3335ZM5.83333 32.6668C3.90367 32.6668 2.33333 34.2372 2.33333 36.1668V45.5002C2.33333 47.4298 3.90367 49.0002 5.83333 49.0002H50.1667C52.0963 49.0002 53.6667 47.4298 53.6667 45.5002V36.1668C53.6667 34.2372 52.0963 32.6668 50.1667 32.6668H5.83333Z" fill="#D4212F"/>
<path d="M8.16667 56C7.52267 56 7 55.4773 7 54.8333V50.1667C7 49.5227 7.52267 49 8.16667 49C8.81067 49 9.33333 49.5227 9.33333 50.1667V54.8333C9.33333 55.4773 8.81067 56 8.16667 56Z" fill="#D4212F"/>
<path d="M47.8337 56C47.1897 56 46.667 55.4773 46.667 54.8333V50.1667C46.667 49.5227 47.1897 49 47.8337 49C48.4777 49 49.0003 49.5227 49.0003 50.1667V54.8333C49.0003 55.4773 48.4777 56 47.8337 56Z" fill="#D4212F"/>
<path d="M45.5 44.3335C43.5703 44.3335 42 42.7632 42 40.8335C42 38.9038 43.5703 37.3335 45.5 37.3335C47.4297 37.3335 49 38.9038 49 40.8335C49 42.7632 47.4297 44.3335 45.5 44.3335ZM45.5 39.6668C44.8583 39.6668 44.3333 40.1895 44.3333 40.8335C44.3333 41.4775 44.8583 42.0002 45.5 42.0002C46.1417 42.0002 46.6667 41.4775 46.6667 40.8335C46.6667 40.1895 46.1417 39.6668 45.5 39.6668Z" fill="#D4212F"/>
<path d="M10.5 44.3335C8.57033 44.3335 7 42.7632 7 40.8335C7 38.9038 8.57033 37.3335 10.5 37.3335C12.4297 37.3335 14 38.9038 14 40.8335C14 42.7632 12.4297 44.3335 10.5 44.3335ZM10.5 39.6668C9.85833 39.6668 9.33333 40.1895 9.33333 40.8335C9.33333 41.4775 9.85833 42.0002 10.5 42.0002C11.1417 42.0002 11.6667 41.4775 11.6667 40.8335C11.6667 40.1895 11.1417 39.6668 10.5 39.6668Z" fill="#D4212F"/>
<path d="M22.167 44.3335C20.2373 44.3335 18.667 42.7632 18.667 40.8335C18.667 38.9038 20.2373 37.3335 22.167 37.3335C24.0967 37.3335 25.667 38.9038 25.667 40.8335C25.667 42.7632 24.0967 44.3335 22.167 44.3335ZM22.167 39.6668C21.5253 39.6668 21.0003 40.1895 21.0003 40.8335C21.0003 41.4775 21.5253 42.0002 22.167 42.0002C22.8087 42.0002 23.3337 41.4775 23.3337 40.8335C23.3337 40.1895 22.8087 39.6668 22.167 39.6668Z" fill="#D4212F"/>
</g>
<defs>
<clipPath id="clip0_1271_554">
<rect width="56" height="56" fill="white"/>
</clipPath>
</defs>
</svg>
