<svg width="56" height="56" viewBox="0 0 56 56" fill="none" xmlns="http://www.w3.org/2000/svg">
<path d="M27.0424 4.68741C19.0334 4.68741 11.9486 8.64494 7.63688 14.7153C7.34305 15.129 6.76949 15.2262 6.35575 14.9323L6.3268 14.973L6.35575 14.9323C5.94206 14.6384 5.8449 14.0649 6.13878 13.6511C10.7803 7.11647 18.4131 2.8498 27.0424 2.8498C41.1938 2.8498 52.6657 14.3217 52.6657 28.4731C52.6657 38.6676 46.712 47.47 38.0961 51.5959C37.6384 51.815 37.0897 51.6216 36.8706 51.164C36.6514 50.7065 36.8448 50.1575 37.3024 49.9384C45.3044 46.1065 50.8281 37.9338 50.8281 28.4731C50.8281 15.3366 40.1789 4.68741 27.0424 4.68741Z" fill="#D4212F" stroke="#D4212F" stroke-width="0.1"/>
<path d="M13.5577 17.179L13.5577 17.1791L15.673 38.5057L15.6347 38.5379C15.6347 38.5379 15.6347 38.5379 15.6347 38.5379C16.9239 40.0739 19.0177 42.0761 20.6671 42.9652L20.7037 42.9849L20.7298 42.9526C21.7086 41.7367 22.7655 40.6544 23.28 40.2374C23.7607 39.848 24.3802 39.4329 25.027 39.344C26.6395 39.1227 29.1003 39.6119 31.2098 40.3749C32.2843 40.7636 33.3234 41.2428 34.1715 41.782C34.9872 42.3008 35.7583 42.957 36.1095 43.7507C36.2416 44.0495 36.2827 44.4164 36.297 44.7278C36.3128 45.0704 36.3001 45.4719 36.2622 45.907C36.1863 46.7783 36.0047 47.84 35.7073 48.931C35.1291 51.0524 34.0428 53.5454 32.2026 54.8044L32.2026 54.8044C31.8187 55.0674 31.2981 55.2132 30.7686 55.2962C30.2132 55.3827 29.545 55.4151 28.7911 55.3847C27.2812 55.3239 25.3687 55.0095 23.2218 54.319C18.9222 52.9363 13.7532 50.2316 8.51988 44.1433C4.13778 38.3679 2.28366 32.7064 1.72145 28.2631C1.43839 26.0257 1.48172 24.088 1.7002 22.5928C1.80932 21.8462 1.9642 21.1954 2.15183 20.6655C2.33073 20.1603 2.57017 19.6755 2.89907 19.3466C4.47571 17.7699 7.12627 17.1615 9.31769 16.9841C10.4459 16.8928 12.3652 16.8978 13.5577 17.179ZM13.4514 19.064L13.4515 19.0639L13.4488 19.0622C13.0217 18.7991 12.3657 18.7096 11.6902 18.6955C11.0127 18.6814 10.3048 18.7432 9.76702 18.7901L9.7663 18.7902C9.7663 18.7902 9.76629 18.7902 9.76629 18.7902C9.65887 18.7995 9.55827 18.8083 9.46597 18.8158C8.41039 18.9012 7.36588 19.0872 6.44969 19.387C5.53405 19.6867 4.74321 20.1012 4.19843 20.6459L4.19841 20.646C4.159 20.6854 4.03138 20.8628 3.884 21.2789L3.884 21.2789C3.74539 21.6705 3.61472 22.2002 3.51851 22.8585L3.5674 22.8657L3.51851 22.8585C3.3264 24.1732 3.28017 25.943 3.54453 28.0324C4.07248 32.205 5.83448 37.6161 10.091 43.1732L10.0909 43.1733L10.0933 43.176C15.1432 48.8584 19.8234 51.2954 23.7844 52.5696C25.7894 53.2146 27.5374 53.495 28.865 53.5485C29.5297 53.5752 30.0744 53.5447 30.4848 53.4806C30.921 53.4124 31.1189 53.3194 31.1649 53.2879C31.8007 52.8529 32.3539 52.1519 32.8171 51.3072C33.2807 50.4619 33.6559 49.4695 33.9344 48.4478C33.9628 48.3433 33.9935 48.2359 34.0254 48.124L34.0373 48.0821L34.0374 48.0821L34.0376 48.0811C34.3046 47.1473 34.6438 45.9607 34.4288 44.4985C34.4047 44.3342 34.2684 44.1565 34.0586 43.9672C33.8463 43.7757 33.549 43.5639 33.1854 43.3327C32.482 42.8854 31.573 42.4604 30.5848 42.103C29.5756 41.7379 28.5412 41.4635 27.6136 41.3001C26.6869 41.137 25.8632 41.0841 25.2769 41.1646C25.2188 41.1726 25.1195 41.2087 24.9818 41.2853C24.8428 41.3628 24.6609 41.4836 24.4369 41.6651L24.4684 41.704L24.4369 41.6651C23.7233 42.2434 22.6438 43.4051 21.7171 44.6891C21.465 45.0384 21.0034 45.1666 20.6082 44.9965C18.1081 43.4473 15.5439 41.3339 14.0736 39.5347L14.0735 39.5346C12.6661 37.8217 11.3461 35.2368 10.4029 32.5505C10.3081 32.1304 10.518 31.7006 10.9079 31.5171C11.4801 31.2479 12.248 30.8042 12.922 30.386C13.5951 29.9684 14.1793 29.5732 14.3825 29.4004C14.6022 29.2137 14.7545 29.0573 14.8563 28.9348C14.957 28.8137 15.0108 28.7228 15.0293 28.6671L15.0294 28.6671C15.2165 28.1056 15.3163 27.2864 15.3267 26.3455C15.3371 25.4036 15.2579 24.3364 15.0851 23.2772C14.9159 22.2401 14.6656 21.2683 14.3556 20.4945C14.0348 19.6938 13.7037 19.242 13.4514 19.064Z" fill="#D4212F" stroke="#D4212F" stroke-width="0.1"/>
<path d="M38.3027 27.4235V27.4735H38.3527H38.6681C39.1756 27.4735 39.5869 27.8849 39.5869 28.3923C39.5869 28.8998 39.1756 29.3112 38.6681 29.3112H38.3527H38.3027V29.3611V32.3484C38.3027 32.8558 37.8914 33.2672 37.3839 33.2672C36.8765 33.2672 36.4651 32.8558 36.4651 32.3484V29.3611V29.3112H36.4151H31.1768C30.6694 29.3112 30.258 28.8998 30.258 28.3923V27.3747C30.258 27.1948 30.3108 27.0188 30.4099 26.8686L35.1187 19.7323C35.2888 19.4746 35.5769 19.3195 35.8857 19.3195H37.3839C37.8914 19.3195 38.3027 19.7309 38.3027 20.2383V27.4235ZM36.4151 27.4735H36.4651V27.4235V21.2071V21.1571H36.4151H36.4071H36.3802L36.3653 21.1796L32.2635 27.396L32.2124 27.4735H32.3053H36.4151Z" fill="#D4212F" stroke="#D4212F" stroke-width="0.1"/>
<path d="M21.0471 23.3089L21.0471 23.3089C20.7845 23.7431 20.2196 23.8822 19.7854 23.6195C19.3512 23.3569 19.2121 22.792 19.4748 22.3578L19.432 22.3319L19.4748 22.3578C20.8351 20.1089 23.2556 19.0845 25.3206 19.4316L25.3289 19.3823L25.3206 19.4316C26.3651 19.6072 27.3371 20.1415 27.9809 21.0676C28.6255 21.995 28.8735 23.2167 28.661 24.6451C28.4486 26.073 27.5571 27.3594 26.2546 28.6586C25.4208 29.4903 24.3719 30.372 23.1262 31.3402L23.011 31.4297H23.1568H29.0365C29.5439 31.4297 29.9553 31.841 29.9553 32.3485C29.9553 32.8559 29.5439 33.2673 29.0365 33.2673H20.2609C19.864 33.2673 19.512 33.0124 19.388 32.6353C19.2641 32.2582 19.3964 31.8442 19.7159 31.6088L19.6863 31.5685L19.7159 31.6088C22.0193 29.9116 23.7559 28.5556 24.9569 27.3576C26.1653 26.1523 26.7185 25.2148 26.8434 24.3747C27.0027 23.3041 26.7944 22.5802 26.4721 22.1165C26.1488 21.6515 25.643 21.3492 25.016 21.2438L25.0077 21.2931L25.016 21.2438C23.7382 21.029 22.0412 21.6653 21.0471 23.3089Z" fill="#D4212F" stroke="#D4212F" stroke-width="0.1"/>
</svg>
