<svg width="56" height="56" viewBox="0 0 56 56" fill="none" xmlns="http://www.w3.org/2000/svg">
<path d="M42.6653 16.1544H29.9233L40.9506 3.35365C41.315 2.93053 41.2684 2.2908 40.8433 1.92639C40.4222 1.56198 39.7825 1.60855 39.416 2.03369L28 15.2859L16.5819 2.03369C16.2135 1.61057 15.5737 1.56401 15.1547 1.92639C14.7316 2.2908 14.683 2.93053 15.0474 3.35365L26.0747 16.1544H13.3347C8.96988 16.1544 5.41895 19.7034 5.41895 24.0681V46.4022C5.41895 50.769 8.96988 54.3179 13.3347 54.3179H42.6653C47.0301 54.3179 50.5811 50.769 50.5811 46.4042V24.0702C50.5811 19.7054 47.0301 16.1544 42.6653 16.1544ZM48.5566 46.4042C48.5566 49.6515 45.9146 52.2934 42.6653 52.2934H13.3347C10.0874 52.2934 7.44343 49.6515 7.44343 46.4042V24.0702C7.44343 20.8229 10.0854 18.1809 13.3347 18.1809H42.6653C45.9126 18.1809 48.5566 20.8229 48.5566 24.0702V46.4042Z" fill="#D4212F"/>
<path d="M41.8298 20.2158H13.2765C10.9362 20.2158 9.0332 22.1188 9.0332 24.4591V41.9648C9.0332 44.3031 10.9362 46.2061 13.2765 46.2061H41.8298C44.1701 46.2061 46.0731 44.3031 46.0731 41.9648V24.4591C46.0711 22.1188 44.1701 20.2158 41.8298 20.2158ZM44.0466 41.9648C44.0466 43.1876 43.0506 44.1816 41.8278 44.1816H13.2765C12.0537 44.1816 11.0577 43.1876 11.0577 41.9648V24.4591C11.0577 23.2363 12.0537 22.2403 13.2765 22.2403H41.8298C43.0526 22.2403 44.0486 23.2363 44.0486 24.4591V41.9648H44.0466Z" fill="#D4212F"/>
<path d="M40.9901 47.8711H15.0108C14.2038 47.8711 13.5488 48.4781 13.5488 49.2259C13.5488 49.9738 14.2038 50.5808 15.0108 50.5808H40.9901C41.7971 50.5808 42.4521 49.9738 42.4521 49.2259C42.4521 48.4781 41.8 47.8711 40.9901 47.8711Z" fill="#D4212F"/>
</svg>
