<svg width="52" height="52" viewBox="0 0 52 52" fill="none" xmlns="http://www.w3.org/2000/svg">
<path d="M51.6928 45.3313L46.1264 39.7649L49.828 36.6401C49.9254 36.5581 49.9985 36.451 50.0396 36.3304C50.0806 36.2099 50.088 36.0804 50.0609 35.956C50.0338 35.8316 49.9733 35.7169 49.8859 35.6243C49.7985 35.5317 49.6875 35.4647 49.5648 35.4305L45.404 34.2881C47.2433 30.2687 47.9162 25.8133 47.3458 21.43C46.7755 17.0467 44.985 12.9118 42.1784 9.49691C42.1421 9.44455 42.1008 9.3958 42.0552 9.35131C39.8396 6.68818 37.065 4.54526 33.9284 3.07459C30.7917 1.60393 27.3699 0.841553 23.9056 0.841553C20.4413 0.841553 17.0195 1.60393 13.8828 3.07459C10.7462 4.54526 7.97164 6.68818 5.756 9.35131C5.70043 9.40139 5.65317 9.45999 5.616 9.52491C2.15098 13.7449 0.257 19.0362 0.257 24.4965C0.257 29.9568 2.15098 35.2481 5.616 39.4681C5.65112 39.5214 5.69248 39.5703 5.7392 39.6137C9.23607 43.8182 14.0841 46.6784 19.4553 47.7058C24.8265 48.7333 30.3878 47.8643 35.1896 45.2473L36.1864 48.8257C36.2214 48.9484 36.2887 49.0593 36.3813 49.147C36.4739 49.2347 36.5884 49.2959 36.7128 49.3241C36.8382 49.3488 36.9678 49.3401 37.0887 49.2988C37.2096 49.2575 37.3175 49.1851 37.4016 49.0889L40.504 45.3873L46.0704 50.9537C46.1342 51.0199 46.2108 51.0723 46.2955 51.108C46.3802 51.1436 46.4713 51.1616 46.5632 51.1609C46.6559 51.1611 46.7476 51.1428 46.8332 51.1073C46.9187 51.0717 46.9964 51.0195 47.0616 50.9537L51.6928 46.3225C51.758 46.2575 51.8097 46.1802 51.845 46.0952C51.8803 46.0102 51.8985 45.919 51.8985 45.8269C51.8985 45.7348 51.8803 45.6437 51.845 45.5586C51.8097 45.4736 51.758 45.3963 51.6928 45.3313V45.3313ZM18.16 3.00091C15.6792 4.95531 13.596 8.12491 12.168 12.0617C10.4528 11.4824 8.80897 10.7103 7.268 9.76011C10.1582 6.4888 13.9456 4.13845 18.16 3.00091ZM6.4 10.8409C8.07335 11.9037 9.86663 12.7646 11.7424 13.4057C10.7095 16.7623 10.1589 20.2486 10.1072 23.7601H1.7072C1.85554 19.0587 3.49946 14.5271 6.4 10.8241V10.8409ZM1.6792 25.1825H10.1072C10.1465 28.7058 10.6877 32.2055 11.7144 35.5761C9.84878 36.2204 8.06514 37.0812 6.4 38.1409C3.48598 34.4347 1.83201 29.8946 1.6792 25.1825V25.1825ZM7.2792 39.2217C8.81682 38.2668 10.4567 37.4872 12.168 36.8977C13.596 40.8177 15.6792 44.0097 18.16 45.9641C13.9469 44.833 10.1592 42.4884 7.268 39.2217H7.2792ZM23.2 46.6865C19.112 46.2777 15.5504 42.3017 13.456 36.4777C16.6233 35.5542 19.9011 35.0644 23.2 35.0217V46.6865ZM23.2 33.6217C19.7508 33.6657 16.3238 34.1801 13.0136 35.1505C12.0497 31.9139 11.5389 28.5593 11.496 25.1825H23.2V33.6217ZM23.2 23.7601H11.5016C11.5445 20.3815 12.0553 17.025 13.0192 13.7865C16.3248 14.7744 19.7504 15.3038 23.2 15.3601V23.7601ZM23.2 13.9153C19.9009 13.8754 16.6227 13.3856 13.456 12.4593C15.556 6.65771 19.1176 2.68731 23.2 2.27851V13.9153ZM44.0432 33.9073L37.004 31.9417C37.4338 29.7133 37.668 27.4517 37.704 25.1825H46.104C46.0196 28.2009 45.3183 31.1701 44.0432 33.9073ZM46.1264 23.7601H37.7264C37.6695 20.2427 37.1153 16.751 36.08 13.3889C37.9575 12.7478 39.7527 11.8869 41.428 10.8241C44.3305 14.5264 45.9765 19.0581 46.1264 23.7601V23.7601ZM40.56 9.76011C39.0236 10.7173 37.3835 11.4969 35.6712 12.0841C34.2432 8.16411 32.16 4.97771 29.6792 3.02331C33.8868 4.15666 37.6698 6.49888 40.56 9.76011V9.76011ZM24.6056 2.27851C28.688 2.68731 32.2552 6.65771 34.344 12.4817C31.1793 13.408 27.9029 13.8979 24.6056 13.9377V2.27851ZM24.6056 15.3377C28.0531 15.2961 31.4787 14.7817 34.7864 13.8089C35.7507 17.0397 36.2614 20.3888 36.304 23.7601H24.6056V15.3377ZM24.6056 25.1825H36.304C36.2682 27.3245 36.0547 29.4598 35.6656 31.5665L32.2048 30.6033C32.0853 30.57 31.959 30.569 31.839 30.6005C31.7189 30.632 31.6094 30.6948 31.5217 30.7826C31.4339 30.8703 31.3711 30.9798 31.3396 31.0999C31.3081 31.2199 31.309 31.3462 31.3424 31.4657L32.16 34.4841C29.6687 33.9497 27.1309 33.6609 24.5832 33.6217L24.6056 25.1825ZM24.6056 35.0217C27.3028 35.0637 29.9876 35.396 32.6136 36.0129L33.392 38.8129C31.2528 43.3601 28.1224 46.3337 24.6056 46.6865V35.0217ZM29.6456 45.9641C31.4015 44.5171 32.852 42.7354 33.9128 40.7225L34.792 43.8585C33.1762 44.7748 31.4507 45.4823 29.6568 45.9641H29.6456ZM46.552 49.4697L40.952 43.8697C40.888 43.8038 40.8114 43.7515 40.7267 43.7159C40.642 43.6803 40.5511 43.6621 40.4592 43.6625H40.4256C40.3287 43.6673 40.2339 43.6922 40.1471 43.7356C40.0604 43.7789 39.9836 43.8399 39.9216 43.9145L37.2 47.1681L33.0224 32.2833L47.9128 36.4385L44.6424 39.1825C44.5678 39.2445 44.5068 39.3213 44.4634 39.408C44.4201 39.4948 44.3952 39.5896 44.3904 39.6865C44.3871 39.7838 44.4038 39.8807 44.4394 39.9712C44.475 40.0617 44.5289 40.144 44.5976 40.2129L50.1976 45.8129L46.552 49.4697Z" fill="#D4212F"/>
</svg>
