<svg width="56" height="56" viewBox="0 0 56 56" fill="none" xmlns="http://www.w3.org/2000/svg">
<g clip-path="url(#clip0_1_630)">
<path d="M31.9534 26.4382H14.9428C14.4786 26.4382 14.1017 26.8147 14.1017 27.2794C14.1017 27.7441 14.4786 28.1206 14.9428 28.1206H31.9534C32.4182 28.1206 32.7946 27.7441 32.7946 27.2794C32.7946 26.8147 32.4182 26.4382 31.9534 26.4382Z" fill="#D4212F"/>
<path d="M31.9534 32.687H7.38153C6.91728 32.687 6.54034 33.0635 6.54034 33.5282C6.54034 33.9929 6.91728 34.3694 7.38153 34.3694H31.9534C32.4182 34.3694 32.7946 33.9929 32.7946 33.5282C32.7946 33.0635 32.4182 32.687 31.9534 32.687Z" fill="#D4212F"/>
<path d="M31.9534 39.4165H17.495C17.0308 39.4165 16.6538 39.793 16.6538 40.2577C16.6538 40.7224 17.0308 41.0989 17.495 41.0989H31.9534C32.4181 41.0989 32.7946 40.7224 32.7946 40.2577C32.7946 39.793 32.4181 39.4165 31.9534 39.4165Z" fill="#D4212F"/>
<path d="M52.5123 32.6219C52.4377 32.5501 52.3504 32.4928 52.2546 32.4525L48.703 27.1472C47.8093 25.799 46.2973 24.9907 44.6797 24.9963H39.8968V21.0809C39.887 20.6007 39.5058 20.2107 39.0261 20.1895H26.0557L24.4377 16.9571C26.1219 16.6422 27.6728 15.8287 28.8891 14.6223C29.0478 14.4664 29.1369 14.2538 29.1374 14.0318C29.1379 13.8093 29.0492 13.5966 28.891 13.4403L23.9588 8.50912L26.4106 6.05738C26.7387 5.72879 26.7387 5.19647 26.4106 4.86788C26.082 4.53929 25.5492 4.53929 25.2206 4.86788L22.7694 7.31916L17.8785 2.41802C17.7213 2.25841 17.5072 2.16688 17.2833 2.16406H17.2819C17.0571 2.16782 16.843 2.26076 16.6867 2.42177C15.0677 4.04312 14.1641 6.2442 14.1772 8.53541C14.1782 10.1511 14.6405 11.7326 15.5089 13.0948L13.405 20.1895H0.806456C0.341737 20.1895 0.00047333 20.6167 0.00047333 21.0809V47.9671C-0.00703729 48.1844 0.07511 48.3952 0.2272 48.5505C0.379759 48.7064 0.588648 48.7927 0.806456 48.7899H4.26979C4.67395 51.6632 7.13227 53.7995 10.0337 53.7995C12.9352 53.7995 15.3935 51.6632 15.7976 48.7899H38.9435C39.3467 51.6637 41.8055 53.8014 44.7074 53.8014C47.6098 53.8014 50.0681 51.6637 50.4718 48.7899H55.1945C55.4119 48.7923 55.6208 48.7059 55.7729 48.5505C55.9249 48.3952 56.0066 48.1844 55.9996 47.9671V40.4729C55.9996 39.918 55.724 35.7365 54.5411 34.5953L52.5123 32.6219ZM44.6797 26.6787C45.7298 26.6618 46.7169 27.1782 47.3028 28.0494L50.1868 32.3267H39.8968V26.6787H44.6797ZM17.3204 4.25154L27.0692 14.0008C24.3034 16.1502 20.3702 15.9047 17.8931 13.4276C15.4165 10.9505 15.171 7.01732 17.3204 4.25154ZM16.7956 14.6791C18.3639 16.1972 20.4514 17.0609 22.6337 17.0947L24.1771 20.1895H15.1592L16.7956 14.6791ZM10.0337 52.135C7.74767 52.135 5.89442 50.2817 5.89442 47.9957C5.89442 45.7092 7.74767 43.8559 10.0337 43.8559C12.3202 43.8559 14.1735 45.7096 14.1735 47.9957C14.1706 50.2808 12.3188 52.1326 10.0337 52.135ZM44.7074 52.135C42.4209 52.135 40.5676 50.2817 40.5676 47.9957C40.5681 45.7092 42.4213 43.8559 44.7074 43.8559C46.9934 43.8559 48.8467 45.7096 48.8467 47.9957C48.8443 50.2808 46.9925 52.1326 44.7074 52.135ZM54.3172 47.1076H50.4638C50.0338 44.2606 47.5868 42.1557 44.7074 42.1557C41.828 42.1557 39.3809 44.2606 38.9505 47.1076H15.7906C15.3601 44.2606 12.9136 42.1562 10.0342 42.1562C7.1548 42.1562 4.70822 44.2606 4.27777 47.1076H1.68285V21.8719H38.2145V33.2279C38.2102 33.4415 38.2957 33.6476 38.4496 33.7959C38.6036 33.9443 38.8125 34.0213 39.0261 34.0091H51.5894L53.3737 35.7764C53.8257 36.2252 54.3177 39.1825 54.3177 40.4729L54.3172 47.1076Z" fill="#D4212F"/>
</g>
<defs>
<clipPath id="clip0_1_630">
<rect width="56" height="56" fill="white"/>
</clipPath>
</defs>
</svg>
