<svg width="56" height="56" viewBox="0 0 56 56" fill="none" xmlns="http://www.w3.org/2000/svg">
<g clip-path="url(#clip0_1_624)">
<path d="M27.9999 27.8486C26.8361 27.8486 25.8893 28.7956 25.8893 29.9593C25.8893 31.1229 26.8363 32.0694 27.9999 32.0694C29.1635 32.0694 30.1105 31.123 30.1105 29.9593C30.1105 28.7955 29.1636 27.8486 27.9999 27.8486ZM27.9999 30.5559C27.6706 30.5559 27.4028 30.2884 27.4028 29.9593C27.4028 29.6301 27.6706 29.3622 27.9999 29.3622C28.3292 29.3622 28.597 29.6301 28.597 29.9593C28.597 30.2884 28.3292 30.5559 27.9999 30.5559ZM17.4663 19.9894C17.1707 19.6938 17.1707 19.2149 17.4663 18.9193C23.2746 13.1106 32.7252 13.1106 38.5334 18.9193C38.829 19.2149 38.829 19.6938 38.5334 19.9894C38.3856 20.1372 38.1919 20.2111 37.9983 20.2111C37.8047 20.2111 37.611 20.1372 37.4632 19.9894C32.2453 14.7709 23.7544 14.7709 18.5363 19.9894C18.2408 20.285 17.762 20.285 17.4663 19.9894ZM35.2633 22.1893C35.5589 22.4849 35.5589 22.9637 35.2633 23.2594C35.1155 23.4071 34.9218 23.4811 34.7282 23.4811C34.5346 23.4811 34.3409 23.4071 34.1931 23.2594C30.7783 19.8451 25.2214 19.8451 21.8066 23.2594C21.511 23.555 21.0322 23.555 20.7365 23.2594C20.4409 22.9637 20.4409 22.4849 20.7365 22.1893C24.7415 18.1847 31.2583 18.1847 35.2633 22.1893ZM31.9928 25.4597C32.2885 25.7553 32.2885 26.2342 31.9928 26.5298C31.8451 26.6776 31.6514 26.7515 31.4578 26.7515C31.2642 26.7515 31.0705 26.6776 30.9227 26.5298C29.3112 24.9187 26.6886 24.9187 25.0771 26.5298C24.7814 26.8254 24.3026 26.8254 24.0069 26.5298C23.7113 26.2342 23.7113 25.7553 24.0069 25.4597C26.2088 23.2573 29.791 23.2573 31.9928 25.4597ZM53.255 7.53442H2.74498C1.23145 7.53442 0 8.76555 0 10.2791V41.19C0 42.7035 1.23145 43.9348 2.74498 43.9348H25.0106V46.952H19.5829C19.1649 46.952 18.8262 47.2909 18.8262 47.7087C18.8262 48.1266 19.1649 48.4655 19.5829 48.4655H36.417C36.835 48.4655 37.1737 48.1266 37.1737 47.7087C37.1737 47.2909 36.835 46.952 36.417 46.952H30.9891V43.9348H53.2551C54.7687 43.9348 56.0001 42.7035 56.0001 41.19V10.2791C56 8.76555 54.7686 7.53442 53.255 7.53442ZM2.74498 9.04785H53.255C53.9341 9.04785 54.4865 9.60019 54.4865 10.2791V35.2956H1.51353V10.2791C1.51353 9.60019 2.06588 9.04785 2.74498 9.04785ZM29.4755 46.952H26.5241V43.9348H29.4755V46.952ZM53.255 42.4212H2.74498C2.06588 42.4212 1.51353 41.8689 1.51353 41.19V36.8091H54.4865V41.19C54.4865 41.8689 53.9342 42.4212 53.255 42.4212ZM35.8097 39.5553C35.8097 39.9731 35.471 40.312 35.0529 40.312H20.9472C20.5291 40.312 20.1904 39.9731 20.1904 39.5553C20.1904 39.1375 20.5291 38.7985 20.9472 38.7985H35.0529C35.471 38.7985 35.8097 39.1375 35.8097 39.5553Z" fill="#D4212F"/>
</g>
<defs>
<clipPath id="clip0_1_624">
<rect width="56" height="56" fill="white"/>
</clipPath>
</defs>
</svg>
