<svg width="32" height="32" viewBox="0 0 32 32" fill="none" xmlns="http://www.w3.org/2000/svg">
<g clip-path="url(#clip0_894_19120)">
<path fill-rule="evenodd" clip-rule="evenodd" d="M2.44285 18.9708C4.00767 15.2713 6.24686 11.9497 9.09829 9.09829C11.9497 6.24686 15.2713 4.00761 18.9708 2.44279C22.8032 0.821901 26.8717 0 31.0635 0C31.5807 0 32 0.419317 32 0.936532V7.43788C32 7.95509 31.5807 8.37441 31.0635 8.37441C25.003 8.37441 19.3052 10.7345 15.0199 15.0199C10.7345 19.3053 8.37441 25.003 8.37441 31.0635C8.37441 31.5807 7.9551 32 7.43788 32H0.936535C0.419319 32 1.90735e-06 31.5807 1.90735e-06 31.0635C1.90735e-06 26.8718 0.821901 22.8032 2.44285 18.9708ZM31.0632 13.0875C31.5804 13.0875 31.9998 13.5068 31.9998 14.024V20.5253C31.9998 21.0425 31.5804 21.4619 31.0632 21.4619C28.482 21.4619 26.0239 22.4656 24.1416 24.2883C22.2523 26.1179 21.2117 28.5241 21.2117 31.0638C21.2117 31.581 20.7924 32.0003 20.2752 32.0003H13.7738C13.2566 32.0003 12.8372 31.581 12.8372 31.0638C12.8372 26.2622 14.7071 21.7479 18.1024 18.3526C21.4485 15.0065 26.1725 13.0875 31.0632 13.0875ZM31.983 28.4388C31.983 26.4844 30.3929 24.8943 28.4384 24.8943C26.484 24.8943 24.8939 26.4843 24.8939 28.4388C24.8939 30.3933 26.484 31.9834 28.4384 31.9834C30.3929 31.9834 31.983 30.3933 31.983 28.4388Z" fill="#D4212F"/>
<path d="M28.4386 31.9835C26.4842 31.9835 24.8941 30.3934 24.8941 28.439C24.8941 27.4544 25.2979 26.5626 25.9483 25.9197L30.9651 30.9221C30.3216 31.5766 29.4269 31.9835 28.4386 31.9835V31.9835Z" fill="#FE5C53"/>
<path d="M24.1418 24.2882C22.2525 26.1178 21.2119 28.524 21.2119 31.0637C21.2119 31.5809 20.7926 32.0002 20.2754 32.0002H13.774C13.2568 32.0002 12.8375 31.5809 12.8375 31.0637C12.8375 26.2621 14.7073 21.7478 18.1026 18.3525C18.1453 18.3097 18.1892 18.2683 18.2324 18.226L24.2292 24.2055C24.2001 24.2331 24.1707 24.2602 24.1418 24.2882V24.2882Z" fill="#FE5C53"/>
<path d="M8.37436 31.0633C8.37436 31.5806 7.95504 31.9999 7.43783 31.9999H0.93648C0.419265 31.9999 -5.18601e-05 31.5806 -5.18601e-05 31.0633C-5.18601e-05 26.8716 0.821847 22.8031 2.4428 18.9707C4.00581 15.2754 6.24175 11.9572 9.08849 9.10791L15.0186 15.021C10.734 19.3064 8.37436 25.0035 8.37436 31.0633Z" fill="#FE5C53"/>
</g>
<defs>
<clipPath id="clip0_894_19120">
<rect width="32" height="32" fill="white" transform="matrix(-1 0 0 1 32 0)"/>
</clipPath>
</defs>
</svg>
