<svg width="24" height="24" viewBox="0 0 24 24" fill="none" xmlns="http://www.w3.org/2000/svg">
<path d="M9.75 21H14.25C15.6419 20.9985 16.9764 20.4449 17.9607 19.4607C18.9449 18.4764 19.4985 17.1419 19.5 15.75V8.25C19.4985 6.85807 18.9449 5.52358 17.9607 4.53933C16.9764 3.55509 15.6419 3.00149 14.25 3H9.75C8.35807 3.00149 7.02358 3.55509 6.03933 4.53933C5.05509 5.52358 4.50149 6.85807 4.5 8.25C4.5 8.44891 4.57902 8.63968 4.71967 8.78033C4.86032 8.92098 5.05109 9 5.25 9C5.44891 9 5.63968 8.92098 5.78033 8.78033C5.92098 8.63968 6 8.44891 6 8.25C6.00109 7.25577 6.39653 6.30258 7.09956 5.59956C7.80258 4.89653 8.75577 4.50109 9.75 4.5H14.25C15.2442 4.50109 16.1974 4.89653 16.9004 5.59956C17.6035 6.30258 17.9989 7.25577 18 8.25V15.75C17.9989 16.7442 17.6035 17.6974 16.9004 18.4004C16.1974 19.1035 15.2442 19.4989 14.25 19.5H9.75C8.75577 19.4989 7.80258 19.1035 7.09956 18.4004C6.39653 17.6974 6.00109 16.7442 6 15.75C6 15.5511 5.92098 15.3603 5.78033 15.2197C5.63968 15.079 5.44891 15 5.25 15C5.05109 15 4.86032 15.079 4.71967 15.2197C4.57902 15.3603 4.5 15.5511 4.5 15.75C4.50149 17.1419 5.05509 18.4764 6.03933 19.4607C7.02358 20.4449 8.35807 20.9985 9.75 21Z" fill="white"/>
<path d="M4.5 12.0001C4.5 12.199 4.57902 12.3897 4.71967 12.5304C4.86032 12.671 5.05109 12.7501 5.25 12.7501H10.5645L9.59475 13.7198C9.52312 13.789 9.46598 13.8718 9.42667 13.9633C9.38737 14.0548 9.36668 14.1532 9.36581 14.2528C9.36495 14.3523 9.38392 14.4511 9.42163 14.5433C9.45934 14.6354 9.51503 14.7192 9.58545 14.7896C9.65587 14.86 9.73961 14.9157 9.83178 14.9534C9.92396 14.9911 10.0227 15.0101 10.1223 15.0092C10.2219 15.0084 10.3203 14.9877 10.4118 14.9484C10.5033 14.9091 10.5861 14.8519 10.6552 14.7803L12.9053 12.5303C13.0459 12.3897 13.1248 12.1989 13.1248 12.0001C13.1248 11.8012 13.0459 11.6105 12.9053 11.4698L10.6552 9.21981C10.5138 9.08319 10.3243 9.0076 10.1277 9.00931C9.93105 9.01101 9.74294 9.08989 9.60389 9.22895C9.46483 9.368 9.38595 9.55611 9.38424 9.75276C9.38254 9.94941 9.45813 10.1389 9.59475 10.2803L10.5645 11.2501H5.25C5.05109 11.2501 4.86032 11.3291 4.71967 11.4697C4.57902 11.6104 4.5 11.8011 4.5 12.0001Z" fill="white"/>
</svg>
