<svg width="14" height="13" viewBox="0 0 14 13" fill="none" xmlns="http://www.w3.org/2000/svg">
<g clip-path="url(#clip0_0_2526)">
<path d="M4.20218 4.51185L3.1222 0.681015C3.07019 0.307052 3.49086 0.0501431 3.80293 0.264487L6.62679 3.10873C6.78435 3.21666 6.99239 3.21059 7.14231 3.09353L9.84991 0.0911861C10.1497 -0.139881 10.5842 0.0927072 10.5536 0.46819L9.5149 4.62435C9.49961 4.81285 9.60975 4.98919 9.78566 5.06064L13.7278 5.58814C14.0796 5.73103 14.0934 6.22053 13.7507 6.38319L9.88969 7.69358C9.71836 7.77415 9.61892 7.95809 9.64493 8.14507L10.8764 11.6719C10.9284 12.0458 10.5077 12.3027 10.1956 12.0884L7.3733 9.24416C7.21573 9.13623 7.00769 9.14231 6.85778 9.25936L4.14865 12.2602C3.84882 12.4913 3.41438 12.2587 3.44497 11.8832L4.48365 7.87904C4.49895 7.69054 4.38881 7.5142 4.21289 7.44275L0.272334 6.76627C-0.0795021 6.62338 -0.0932696 6.13388 0.249388 5.97122L3.95743 4.96487C4.13029 4.88278 4.22819 4.69884 4.20218 4.51185Z" fill="white"/>
</g>
<defs>
<clipPath id="clip0_0_2526">
<rect width="12.3529" height="14" fill="white" transform="translate(0 12.353) rotate(-90)"/>
</clipPath>
</defs>
</svg>
