<svg width="33" height="35" viewBox="0 0 33 35" fill="none" xmlns="http://www.w3.org/2000/svg">
<path d="M16.4665 1.49614C11.3028 1.49614 6.7349 4.04775 3.955 7.96152C3.77147 8.21991 3.41321 8.28061 3.15478 8.09704C2.89638 7.91351 2.83569 7.55525 3.01926 7.29682C6.00519 3.09304 10.9153 0.34834 16.4665 0.34834C25.57 0.34834 32.9499 7.72819 32.9499 16.8317C32.9499 23.3898 29.1199 29.0524 23.5773 31.7066C23.2914 31.8434 22.9487 31.7226 22.8118 31.4368L22.7667 31.4584L22.8118 31.4368C22.6749 31.151 22.7957 30.8081 23.0816 30.6712C28.2407 28.2007 31.8021 22.9315 31.8021 16.8317C31.8021 8.36209 24.9361 1.49614 16.4665 1.49614Z" fill="#D4212F" stroke="#D4212F" stroke-width="0.1"/>
<path fill-rule="evenodd" clip-rule="evenodd" d="M4.51282 26.9434C1.6868 23.2192 0.490568 19.5675 0.127801 16.7005C-0.0548145 15.257 -0.0269574 14.0062 0.1142 13.0402C0.184701 12.5578 0.284868 12.1366 0.40656 11.7929C0.522324 11.466 0.678487 11.1484 0.895355 10.9315C1.91927 9.90759 3.63634 9.51516 5.04907 9.4008C5.77684 9.3419 7.01682 9.3448 7.78961 9.52708C7.98576 9.57331 8.21807 9.6439 8.39667 9.76656C8.8655 10.0886 9.19229 10.662 9.42445 11.2415C9.66624 11.845 9.8468 12.562 9.96556 13.2898C10.1985 14.7173 10.2171 16.3392 9.88314 17.3411C9.74719 17.7488 9.40486 18.0966 9.10064 18.3551C8.77325 18.6334 7.88747 19.1714 7.07384 19.651C7.57552 20.8872 8.27164 22.2571 9.14441 23.2926C9.97364 24.2806 11.3189 25.5664 12.3759 26.1361C13.0069 25.3523 13.6892 24.6533 14.023 24.3828C14.3332 24.1315 14.7381 23.8591 15.1639 23.8006C16.2102 23.657 17.8008 23.9741 19.161 24.4661C19.8544 24.7169 20.5259 25.0265 21.0746 25.3754C21.6013 25.7103 22.1047 26.1372 22.3348 26.6573C22.4224 26.8555 22.449 27.0968 22.4583 27.2981C22.4686 27.5206 22.4603 27.7806 22.4358 28.0618C22.3867 28.6249 22.2694 29.3105 22.0774 30.0149C21.7047 31.3825 21.0026 32.9978 19.8076 33.8154C19.5544 33.9888 19.2135 34.0837 18.8708 34.1373C18.5107 34.1935 18.0781 34.2144 17.5911 34.1947C16.6155 34.1554 15.381 33.9523 13.996 33.5069C11.2217 32.6147 7.88747 30.8697 4.51282 26.9434V26.9434ZM1.77767 11.8138C2.46949 11.122 3.79393 10.7543 5.14976 10.6445C5.20931 10.6397 5.2742 10.6341 5.34336 10.628C6.03657 10.5676 7.16097 10.4695 7.69518 10.7986C7.84985 10.9077 8.0602 11.1914 8.26615 11.7055C8.46467 12.201 8.62532 12.8245 8.73404 13.4907C8.95605 14.8515 8.93734 16.2325 8.69938 16.9464C8.67932 17.0066 8.57326 17.1657 8.29254 17.4043C8.03502 17.6232 6.79564 18.4177 6.06206 18.7629C5.79672 18.8878 5.65416 19.1806 5.71951 19.4664C6.32772 21.1991 7.17965 22.8683 8.08952 23.9757C9.03969 25.1384 10.695 26.5023 12.3077 27.5013C12.5766 27.6182 12.8912 27.5313 13.0629 27.2935C13.6585 26.4682 14.3519 25.7224 14.8086 25.3523C15.0949 25.1203 15.2709 25.0454 15.3336 25.0368C16.0792 24.9345 17.44 25.1705 18.7365 25.6395C19.3714 25.8691 19.9545 26.1419 20.405 26.4283C20.8723 26.7255 21.1637 26.9693 21.1912 27.1566C21.3286 28.0911 21.1119 28.8495 20.94 29.4509C20.9167 29.5326 20.8942 29.6109 20.8736 29.6867C20.5158 30.9991 19.9103 32.2332 19.1029 32.7856C19.0792 32.8019 18.9574 32.8608 18.6782 32.9045C18.4164 32.9454 18.0678 32.965 17.6412 32.9479C16.7895 32.9135 15.6667 32.7336 14.378 32.319C11.8323 31.5001 8.82332 29.9338 5.57523 26.2789C2.83768 22.7049 1.70505 19.2256 1.36574 16.5438C1.19582 15.2009 1.22565 14.0641 1.3489 13.2206C1.41063 12.7982 1.49436 12.4592 1.58277 12.2094C1.67713 11.943 1.75737 11.8342 1.77767 11.8138V11.8138Z" fill="#D4212F"/>
<path d="M23.7 16.1559V16.2059H23.75H23.9531C24.2701 16.2059 24.527 16.4628 24.527 16.7798C24.527 17.0968 24.2701 17.3537 23.9531 17.3537H23.75H23.7V17.4037V19.3274C23.7 19.6444 23.443 19.9013 23.1261 19.9013C22.8091 19.9013 22.5522 19.6444 22.5522 19.3274V17.4037V17.3537H22.5022H19.1288C18.8118 17.3537 18.5549 17.0968 18.5549 16.7798V16.1244C18.5549 16.0121 18.5879 15.9022 18.6497 15.8084L21.6822 11.2126C21.7884 11.0516 21.9684 10.9548 22.1612 10.9548H23.1261C23.443 10.9548 23.7 11.2117 23.7 11.5287V16.1559ZM22.5022 16.2059H22.5522V16.1559V12.1526V12.1026H22.5022H22.497H22.4701L22.4553 12.125L19.8137 16.1284L19.7626 16.2059H19.8555H22.5022Z" fill="#D4212F" stroke="#D4212F" stroke-width="0.1"/>
<path d="M15.1644 12.1584L15.1644 12.1584C14.3339 12.0188 13.234 12.4323 12.5902 13.4966L12.5902 13.4966C12.4262 13.7678 12.0734 13.8547 11.8021 13.6906C11.5309 13.5266 11.4441 13.1738 11.6081 12.9026C12.4806 11.4601 14.0324 10.8042 15.3546 11.0265L15.3629 10.9772L15.3546 11.0265C16.0232 11.1388 16.6447 11.4807 17.0562 12.0726C17.4682 12.6653 17.6275 13.4473 17.4912 14.3638C17.3552 15.2776 16.7844 16.1027 15.9465 16.9384C15.4103 17.4733 14.7354 18.0405 13.9334 18.6639L13.8183 18.7534H13.9641H17.7505C18.0675 18.7534 18.3244 19.0103 18.3244 19.3273C18.3244 19.6442 18.0675 19.9012 17.7505 19.9012H12.0992C11.8513 19.9012 11.6314 19.742 11.554 19.5064C11.4766 19.2709 11.5592 19.0123 11.7588 18.8652L11.7291 18.825L11.7588 18.8652C13.2421 17.7723 14.3614 16.8983 15.1359 16.1258C15.915 15.3486 16.2746 14.7416 16.3559 14.1949C16.4589 13.5019 16.3244 13.0309 16.1137 12.7278C15.9025 12.4239 15.5722 12.227 15.1644 12.1584Z" fill="#D4212F" stroke="#D4212F" stroke-width="0.1"/>
</svg>
