<svg width="20" height="19" viewBox="0 0 20 19" fill="none" xmlns="http://www.w3.org/2000/svg">
<path d="M19.7738 9.36643L17.6824 6.975L17.9738 3.81214L14.8795 3.10929L13.2595 0.375L10.3453 1.62643L7.43097 0.375L5.81097 3.10929L2.71669 3.80357L3.00812 6.975L0.916687 9.36643L3.00812 11.7579L2.71669 14.9293L5.81097 15.6321L7.43097 18.375L10.3453 17.115L13.2595 18.3664L14.8795 15.6321L17.9738 14.9293L17.6824 11.7664L19.7738 9.36643ZM16.3881 10.635L15.9081 11.1921L15.9767 11.9207L16.131 13.5921L14.5024 13.9607L13.7824 14.1236L13.4053 14.7579L12.5567 16.1979L11.031 15.5379L10.3453 15.2464L9.66812 15.5379L8.1424 16.1979L7.29383 14.7664L6.91669 14.1321L6.19669 13.9693L4.56812 13.6007L4.7224 11.9207L4.79097 11.1921L4.31097 10.635L3.20526 9.375L4.31097 8.10643L4.79097 7.54929L4.71383 6.81214L4.55954 5.14929L6.18812 4.78071L6.90812 4.61786L7.28526 3.98357L8.13383 2.54357L9.65954 3.20357L10.3453 3.495L11.0224 3.20357L12.5481 2.54357L13.3967 3.98357L13.7738 4.61786L14.4938 4.78071L16.1224 5.14929L15.9681 6.82072L15.8995 7.54929L16.3795 8.10643L17.4853 9.36643L16.3881 10.635Z" fill="#D4212F"/>
<path d="M8.70812 10.875L6.71956 8.87782L5.45099 10.155L8.70812 13.4207L14.9995 7.1121L13.731 5.83496L8.70812 10.875Z" fill="#D4212F"/>
</svg>
