<svg width="148" height="35" viewBox="0 0 148 35" fill="none" xmlns="http://www.w3.org/2000/svg">
<g clip-path="url(#clip0_1201_35102)">
<path fill-rule="evenodd" clip-rule="evenodd" d="M2.63851 20.4895C4.3286 16.4938 6.74704 12.9063 9.82673 9.82662C12.9064 6.74693 16.4939 4.32843 20.4896 2.63834C24.6287 0.887695 29.023 0 33.5503 0C34.1089 0 34.5618 0.452884 34.5618 1.0115V8.03329C34.5618 8.59191 34.1089 9.0448 33.5503 9.0448C27.0046 9.0448 20.8508 11.5938 16.2224 16.2222C11.5939 20.8507 9.0449 27.0046 9.0449 33.5502C9.0449 34.1088 8.59202 34.5617 8.0334 34.5617H1.01161C0.452991 34.5617 0.000106812 34.1088 0.000106812 33.5502C0.000106812 29.0229 0.887802 24.6287 2.63851 20.4895ZM33.5501 14.1351C34.1087 14.1351 34.5616 14.588 34.5616 15.1466V22.1684C34.5616 22.727 34.1087 23.1799 33.5501 23.1799C30.7623 23.1799 28.1073 24.264 26.0744 26.2325C24.0338 28.2086 22.91 30.8074 22.91 33.5504C22.91 34.109 22.4571 34.5619 21.8984 34.5619H14.8766C14.318 34.5619 13.8651 34.109 13.8651 33.5504C13.8651 28.3644 15.8847 23.4888 19.5517 19.8217C23.1657 16.2078 28.2678 14.1351 33.5501 14.1351ZM34.5435 30.7153C34.5435 28.6044 32.8261 26.887 30.7152 26.887C28.6043 26.887 26.8869 28.6044 26.8869 30.7153C26.8869 32.8263 28.6042 34.5437 30.7152 34.5437C32.8261 34.5437 34.5435 32.8263 34.5435 30.7153Z" fill="#D4212F"/>
<path d="M30.7154 34.5439C28.6045 34.5439 26.8871 32.8265 26.8871 30.7156C26.8871 29.6522 27.3233 28.689 28.0257 27.9946L33.4441 33.3975C32.7491 34.1044 31.7828 34.5439 30.7154 34.5439V34.5439Z" fill="#FE5C53"/>
<path d="M26.0745 26.2326C24.0339 28.2087 22.9101 30.8075 22.9101 33.5505C22.9101 34.1091 22.4572 34.562 21.8986 34.562H14.8767C14.3181 34.562 13.8652 34.1091 13.8652 33.5505C13.8652 28.3645 15.8848 23.4889 19.5518 19.8217C19.598 19.7756 19.6454 19.7308 19.6921 19.6851L26.1689 26.1433C26.1375 26.173 26.1057 26.2024 26.0745 26.2326V26.2326Z" fill="#FE5C53"/>
<path d="M9.04487 33.5499C9.04487 34.1085 8.59199 34.5614 8.03337 34.5614H1.01158C0.452955 34.5614 7.16162e-05 34.1085 7.16162e-05 33.5499C7.16162e-05 29.0226 0.887766 24.6284 2.63848 20.4892C4.32661 16.4981 6.74154 12.9142 9.81617 9.83691L16.2209 16.2233C11.5934 20.8518 9.04487 27.005 9.04487 33.5499Z" fill="#FE5C53"/>
</g>
<path d="M46.5064 21.4452V18.6468H57.2967V21.4452H46.5064ZM42.4474 25L50.1116 8.68844H53.7419L61.4817 25H57.8261L51.12 10.3019H52.7335L46.0778 25H42.4474ZM63.6515 7.42788H66.9289V25H63.6515V7.42788ZM77.4924 12.4701L70.0299 19.0502L70.1055 17.0333L78.0722 25H73.9124L67.0045 17.9661L73.03 12.4701H77.4924ZM91.2428 25V18.1174C91.2428 17.4283 91.1252 16.8568 90.8899 16.403C90.6546 15.9492 90.2764 15.6047 89.7554 15.3694C89.2512 15.1341 88.5705 15.0164 87.7133 15.0164C86.8897 15.0164 86.1418 15.1761 85.4695 15.4954C84.7972 15.798 84.251 16.2013 83.8308 16.7056C83.4106 17.193 83.1753 17.714 83.1249 18.2686L83.0997 16.882C83.1837 16.3274 83.377 15.7727 83.6795 15.2181C83.982 14.6635 84.3854 14.1592 84.8896 13.7054C85.3939 13.2516 85.9989 12.8903 86.7048 12.6214C87.4276 12.3356 88.2343 12.1928 89.1251 12.1928C89.8982 12.1928 90.6126 12.2936 91.268 12.4953C91.9235 12.6802 92.495 12.9743 92.9824 13.3777C93.4698 13.7811 93.848 14.2853 94.1169 14.8904C94.3858 15.4786 94.5203 16.1761 94.5203 16.9829V25H91.2428ZM80.0239 25V7.42788H83.3013V25H80.0239ZM103.6 25.2773C102.356 25.2773 101.222 25.0084 100.197 24.4706C99.1881 23.9159 98.3813 23.1512 97.7762 22.1764C97.188 21.1847 96.8939 20.0418 96.8939 18.7477C96.8939 17.4199 97.1964 16.2686 97.8014 15.2937C98.4065 14.3189 99.2217 13.5626 100.247 13.0247C101.289 12.4701 102.465 12.1928 103.776 12.1928C105.222 12.1928 106.382 12.4869 107.256 13.0752C108.146 13.6466 108.793 14.4282 109.197 15.4198C109.6 16.4114 109.802 17.5207 109.802 18.7477C109.802 19.4872 109.684 20.2435 109.449 21.0167C109.214 21.773 108.852 22.4789 108.365 23.1344C107.877 23.7731 107.239 24.2941 106.449 24.6975C105.659 25.084 104.709 25.2773 103.6 25.2773ZM104.659 22.7562C105.65 22.7562 106.508 22.5881 107.23 22.252C107.953 21.9158 108.508 21.4452 108.894 20.8402C109.281 20.2351 109.474 19.5376 109.474 18.7477C109.474 17.8905 109.272 17.1678 108.869 16.5795C108.483 15.9744 107.928 15.5206 107.205 15.2181C106.499 14.8988 105.65 14.7391 104.659 14.7391C103.264 14.7391 102.18 15.1089 101.407 15.8484C100.633 16.5711 100.247 17.5375 100.247 18.7477C100.247 19.5544 100.432 20.2603 100.802 20.8654C101.171 21.4536 101.684 21.9158 102.339 22.252C103.012 22.5881 103.785 22.7562 104.659 22.7562ZM109.474 12.4701H112.752V25H109.701C109.701 25 109.676 24.8403 109.625 24.521C109.592 24.1848 109.558 23.7647 109.525 23.2604C109.491 22.7562 109.474 22.2604 109.474 21.773V12.4701ZM115.214 20.8402H118.239C118.424 21.4116 118.802 21.8822 119.373 22.252C119.962 22.6049 120.726 22.7814 121.668 22.7814C122.306 22.7814 122.802 22.7226 123.155 22.6049C123.508 22.4873 123.752 22.3192 123.886 22.1007C124.021 21.8654 124.088 21.6049 124.088 21.3192C124.088 20.9662 123.979 20.6973 123.76 20.5124C123.542 20.3107 123.206 20.1511 122.752 20.0334C122.298 19.9158 121.718 19.8065 121.012 19.7057C120.306 19.588 119.626 19.4452 118.97 19.2771C118.315 19.109 117.735 18.8905 117.231 18.6216C116.726 18.3359 116.323 17.9829 116.02 17.5627C115.735 17.1257 115.592 16.5963 115.592 15.9744C115.592 15.3694 115.735 14.8315 116.02 14.3609C116.323 13.8903 116.735 13.4953 117.256 13.176C117.794 12.8567 118.415 12.613 119.121 12.4449C119.844 12.2768 120.617 12.1928 121.441 12.1928C122.685 12.1928 123.718 12.3777 124.542 12.7474C125.365 13.1004 125.979 13.6046 126.382 14.2601C126.802 14.8988 127.012 15.6383 127.012 16.4787H124.113C123.979 15.8568 123.71 15.4114 123.306 15.1425C122.903 14.8567 122.281 14.7139 121.441 14.7139C120.617 14.7139 119.995 14.8399 119.575 15.092C119.155 15.3442 118.945 15.6887 118.945 16.1257C118.945 16.4787 119.071 16.756 119.323 16.9577C119.592 17.1425 119.979 17.2938 120.483 17.4115C121.004 17.5291 121.651 17.6552 122.424 17.7896C123.079 17.9241 123.701 18.0754 124.29 18.2434C124.895 18.4115 125.433 18.63 125.903 18.8989C126.374 19.151 126.743 19.4956 127.012 19.9326C127.298 20.3528 127.441 20.8906 127.441 21.5461C127.441 22.3528 127.206 23.0335 126.735 23.5882C126.281 24.1428 125.626 24.5714 124.769 24.8739C123.911 25.1597 122.886 25.3025 121.693 25.3025C120.634 25.3025 119.718 25.1933 118.945 24.9748C118.189 24.7395 117.558 24.4454 117.054 24.0924C116.55 23.7226 116.155 23.3361 115.869 22.9327C115.6 22.5125 115.415 22.1175 115.314 21.7478C115.214 21.378 115.18 21.0755 115.214 20.8402ZM141.394 25V18.1174C141.394 17.4283 141.277 16.8568 141.041 16.403C140.806 15.9492 140.428 15.6047 139.907 15.3694C139.402 15.1341 138.722 15.0164 137.865 15.0164C137.041 15.0164 136.293 15.1761 135.621 15.4954C134.949 15.798 134.402 16.2013 133.982 16.7056C133.562 17.193 133.327 17.714 133.276 18.2686L133.251 16.882C133.335 16.3274 133.528 15.7727 133.831 15.2181C134.133 14.6635 134.537 14.1592 135.041 13.7054C135.545 13.2516 136.15 12.8903 136.856 12.6214C137.579 12.3356 138.386 12.1928 139.276 12.1928C140.05 12.1928 140.764 12.2936 141.419 12.4953C142.075 12.6802 142.646 12.9743 143.134 13.3777C143.621 13.7811 143.999 14.2853 144.268 14.8904C144.537 15.4786 144.672 16.1761 144.672 16.9829V25H141.394ZM130.175 25V7.42788H133.453V25H130.175Z" fill="#141414"/>
<defs>
<clipPath id="clip0_1201_35102">
<rect width="34.5617" height="34.5617" fill="white" transform="matrix(-1 0 0 1 34.5618 0)"/>
</clipPath>
</defs>
</svg>
