<svg id="em9VabQ5Knl1" xmlns="http://www.w3.org/2000/svg" xmlns:xlink="http://www.w3.org/1999/xlink" viewBox="0 0 152 152" shape-rendering="geometricPrecision" text-rendering="geometricPrecision">
<style><![CDATA[
#em9VabQ5Knl2 {animation: em9VabQ5Knl2_c_o 1500ms linear infinite normal forwards}@keyframes em9VabQ5Knl2_c_o { 0% {opacity: 1} 16.666667% {opacity: 0.2} 33.333333% {opacity: 1} 50% {opacity: 0.2} 66.666667% {opacity: 1} 84% {opacity: 0} 100% {opacity: 1}} #em9VabQ5Knl5 {animation: em9VabQ5Knl5_c_o 1500ms linear infinite normal forwards}@keyframes em9VabQ5Knl5_c_o { 0% {opacity: 0} 33.333333% {opacity: 0} 66.666667% {opacity: 1} 100% {opacity: 1}} #em9VabQ5Knl8 {animation: em9VabQ5Knl8_c_o 1500ms linear infinite normal forwards}@keyframes em9VabQ5Knl8_c_o { 0% {opacity: 0} 33.333333% {opacity: 0} 50% {opacity: 0} 66.666667% {opacity: 0} 100% {opacity: 1}}
]]></style>
<g id="em9VabQ5Knl2"><path d="M135.082,118.248c9.284,0,16.837,7.553,16.837,16.836c0,9.284-7.553,16.837-16.837,16.837s-16.836-7.553-16.836-16.837s7.553-16.836,16.836-16.836v0Z" fill="#d4212f"/><path d="M135.083,151.922c-9.283,0-16.836-7.553-16.836-16.837c0-4.676,1.918-8.913,5.007-11.966l23.83,23.761c-3.057,3.109-7.306,5.042-12.001,5.042v0Z" fill="#fe5c53"/></g><g id="em9VabQ5Knl5" opacity="0"><path d="M147.55,62.165c2.456,0,4.448,1.9918,4.448,4.4486v30.8814c0,2.4567-1.992,4.448-4.448,4.448-12.261,0-23.937,4.768-32.878,13.426-8.975,8.69-13.917,20.12-13.917,32.183c0,2.457-1.9919,4.449-4.4487,4.449h-30.8817c-2.4567,0-4.4485-1.992-4.4485-4.449c0-22.807,8.8819-44.25,25.0093-60.3776C101.879,71.2807,124.318,62.165,147.55,62.165Z" fill="#d4212f"/><path d="M114.673,115.369c-8.975,8.691-13.917,20.12-13.917,32.183c0,2.457-1.9921,4.449-4.4489,4.449h-30.8817c-2.4568,0-4.4485-1.992-4.4485-4.449c0-22.807,8.8819-44.25,25.0093-60.3776.2032-.2032.4116-.4001.6169-.6012L115.088,114.976c-.139.131-.278.26-.415.393v0Z" fill="#fe5c53"/></g><g id="em9VabQ5Knl8" opacity="0"><path d="M11.6035,90.1115c7.4329-17.5729,18.0691-33.3504,31.6134-46.8946C56.7612,29.6726,72.5386,19.0361,90.1115,11.6032C108.315,3.90403,127.641,0,147.551,0C150.008,0,152,1.99175,152,4.44853v30.88137c0,2.4568-1.992,4.4485-4.449,4.4485-28.787,0-55.8511,11.2103-76.2064,31.5659C50.9887,91.7002,39.7785,118.764,39.7785,147.551c0,2.457-1.9918,4.449-4.4486,4.449h-30.88136c-2.45678,0-4.448538-1.992-4.448538-4.449c0-19.91,3.904028-39.236,11.603498-57.4395Z" fill="#d4212f"/><path d="M39.778,147.551c0,2.456-1.9918,4.448-4.4486,4.448h-30.88136c-2.45678,0-4.44853-1.992-4.44853-4.448c0-19.911,3.90402-39.237,11.60349-57.4407c7.4243-17.5527,18.0451-33.3142,31.5671-46.8481L71.3379,71.3493C50.9862,91.7049,39.778,118.766,39.778,147.551Z" fill="#fe5c53"/></g></svg>
