<svg width="178" height="42" viewBox="0 0 178 42" fill="none" xmlns="http://www.w3.org/2000/svg">
<g clip-path="url(#clip0_1201_49049)">
<path fill-rule="evenodd" clip-rule="evenodd" d="M3.19705 24.828C5.24501 19.9862 8.17554 15.6392 11.9073 11.9074C15.6391 8.17556 19.9862 5.24495 24.828 3.19699C29.8436 1.07566 35.1683 0 40.6542 0C41.3311 0 41.8799 0.548779 41.8799 1.22568V9.7343C41.8799 10.4112 41.3311 10.96 40.6542 10.96C32.7226 10.96 25.2657 14.0487 19.6573 19.6572C14.0487 25.2658 10.96 32.7227 10.96 40.6542C10.96 41.3311 10.4112 41.8799 9.73428 41.8799H1.22567C0.548759 41.8799 -2.28882e-05 41.3311 -2.28882e-05 40.6542C-2.28882e-05 35.1684 1.07564 29.8437 3.19705 24.828ZM40.6542 17.128C41.3311 17.128 41.8799 17.6768 41.8799 18.3537V26.8623C41.8799 27.5392 41.3311 28.088 40.6542 28.088C37.276 28.088 34.0589 29.4017 31.5956 31.787C29.1229 34.1815 27.761 37.3306 27.761 40.6544C27.761 41.3313 27.2123 41.8801 26.5354 41.8801H18.0267C17.3498 41.8801 16.801 41.3313 16.801 40.6544C16.801 34.3704 19.2482 28.4623 23.6917 24.0187C28.0709 19.6396 34.2534 17.128 40.6542 17.128ZM41.858 37.2191C41.858 34.6613 39.7769 32.5802 37.219 32.5802C34.6612 32.5802 32.5801 34.6612 32.5801 37.2191C32.5801 39.777 34.6611 41.8581 37.219 41.8581C39.7769 41.8581 41.858 39.7771 41.858 37.2191Z" fill="white"/>
<path d="M37.2191 41.8584C34.6612 41.8584 32.5803 39.7774 32.5803 37.2195C32.5803 35.9309 33.1088 34.7638 33.9599 33.9224L40.5256 40.4692C39.6834 41.3258 38.5126 41.8584 37.2191 41.8584Z" fill="#FCF4F4"/>
<path d="M31.5954 31.787C29.1227 34.1815 27.7609 37.3306 27.7609 40.6544C27.7609 41.3313 27.2121 41.8801 26.5352 41.8801H18.0265C17.3496 41.8801 16.8008 41.3313 16.8008 40.6544C16.8008 34.3703 19.248 28.4623 23.6915 24.0187C23.7475 23.9627 23.8049 23.9084 23.8615 23.853L31.7098 31.6788C31.6716 31.7148 31.6331 31.7504 31.5954 31.787Z" fill="#FCF4F4"/>
<path d="M10.9599 40.654C10.9599 41.3309 10.4112 41.8797 9.73426 41.8797H1.22564C0.548738 41.8797 -4.00543e-05 41.3309 -4.00543e-05 40.654C-4.00543e-05 35.1681 1.07562 29.8434 3.19703 24.8278C5.24262 19.9915 8.1689 15.6489 11.8946 11.9199L19.6555 19.6586C14.0481 25.2671 10.9599 32.7233 10.9599 40.654Z" fill="#FCF4F4"/>
</g>
<path d="M56.3535 26.7477V23.3567H69.4286V26.7477H56.3535ZM51.435 31.0552L60.7221 11.2897H65.1212L74.4998 31.0552H70.0702L61.944 13.2449H63.8992L55.8342 31.0552H51.435ZM77.129 9.76226H81.1004V31.0552H77.129V9.76226ZM93.9006 15.8721L84.858 23.8455L84.9496 21.4016L94.6032 31.0552H89.5626L81.1921 22.5319L88.4934 15.8721H93.9006ZM110.563 31.0552V22.7152C110.563 21.8802 110.42 21.1877 110.135 20.6378C109.85 20.0879 109.392 19.6704 108.76 19.3853C108.149 19.1002 107.324 18.9576 106.286 18.9576C105.288 18.9576 104.381 19.1511 103.567 19.5381C102.752 19.9047 102.09 20.3934 101.581 21.0044C101.072 21.5951 100.787 22.2264 100.726 22.8985L100.695 21.2183C100.797 20.5462 101.031 19.8741 101.398 19.202C101.764 18.5299 102.253 17.9189 102.864 17.3691C103.475 16.8192 104.208 16.3813 105.064 16.0554C105.94 15.7092 106.917 15.5361 107.997 15.5361C108.933 15.5361 109.799 15.6583 110.593 15.9027C111.387 16.1267 112.08 16.4831 112.671 16.9719C113.261 17.4607 113.719 18.0717 114.045 18.8049C114.371 19.5177 114.534 20.3629 114.534 21.3405V31.0552H110.563ZM96.9682 31.0552V9.76226H100.94V31.0552H96.9682ZM125.536 31.3912C124.029 31.3912 122.655 31.0654 121.412 30.4136C120.19 29.7416 119.213 28.8149 118.479 27.6336C117.767 26.432 117.41 25.0471 117.41 23.4789C117.41 21.87 117.777 20.4749 118.51 19.2937C119.243 18.1124 120.231 17.1959 121.473 16.5442C122.736 15.8721 124.162 15.5361 125.75 15.5361C127.502 15.5361 128.907 15.8925 129.966 16.6053C131.045 17.2978 131.83 18.2448 132.318 19.4464C132.807 20.648 133.052 21.9922 133.052 23.4789C133.052 24.375 132.909 25.2915 132.624 26.2284C132.339 27.1449 131.901 28.0002 131.31 28.7945C130.72 29.5684 129.946 30.1998 128.988 30.6886C128.031 31.157 126.881 31.3912 125.536 31.3912ZM126.819 28.3363C128.021 28.3363 129.06 28.1326 129.935 27.7253C130.811 27.318 131.483 26.7477 131.952 26.0145C132.42 25.2813 132.654 24.4361 132.654 23.4789C132.654 22.4403 132.41 21.5645 131.921 20.8517C131.453 20.1185 130.781 19.5686 129.905 19.202C129.05 18.8151 128.021 18.6216 126.819 18.6216C125.129 18.6216 123.815 19.0696 122.879 19.9658C121.942 20.8415 121.473 22.0126 121.473 23.4789C121.473 24.4565 121.697 25.3119 122.145 26.0451C122.593 26.7579 123.215 27.318 124.009 27.7253C124.824 28.1326 125.76 28.3363 126.819 28.3363ZM132.654 15.8721H136.626V31.0552H132.929C132.929 31.0552 132.899 30.8617 132.838 30.4747C132.797 30.0674 132.756 29.5583 132.715 28.9473C132.675 28.3363 132.654 27.7355 132.654 27.1449V15.8721ZM139.609 26.0145H143.275C143.499 26.707 143.957 27.2772 144.65 27.7253C145.363 28.153 146.289 28.3668 147.43 28.3668C148.204 28.3668 148.805 28.2955 149.232 28.153C149.66 28.0104 149.955 27.8068 150.118 27.542C150.281 27.2569 150.363 26.9412 150.363 26.595C150.363 26.1673 150.23 25.8414 149.965 25.6174C149.701 25.373 149.293 25.1795 148.743 25.0369C148.194 24.8944 147.491 24.762 146.636 24.6398C145.78 24.4972 144.955 24.3241 144.161 24.1205C143.367 23.9168 142.664 23.652 142.053 23.3262C141.442 22.98 140.953 22.5523 140.587 22.0431C140.24 21.5136 140.067 20.872 140.067 20.1185C140.067 19.3853 140.24 18.7336 140.587 18.1633C140.953 17.5931 141.452 17.1145 142.084 16.7275C142.735 16.3406 143.489 16.0452 144.344 15.8416C145.22 15.6379 146.157 15.5361 147.155 15.5361C148.662 15.5361 149.914 15.7601 150.912 16.2082C151.91 16.6359 152.654 17.2469 153.143 18.0411C153.652 18.8151 153.906 19.7112 153.906 20.7295H150.393C150.23 19.9759 149.904 19.4362 149.415 19.1104C148.927 18.7641 148.173 18.591 147.155 18.591C146.157 18.591 145.403 18.7438 144.894 19.0493C144.385 19.3548 144.13 19.7723 144.13 20.3018C144.13 20.7295 144.283 21.0655 144.589 21.3099C144.915 21.534 145.383 21.7172 145.994 21.8598C146.625 22.0024 147.409 22.1551 148.346 22.3181C149.141 22.481 149.894 22.6643 150.607 22.8679C151.34 23.0716 151.992 23.3364 152.562 23.6622C153.132 23.9677 153.58 24.3852 153.906 24.9148C154.252 25.4239 154.426 26.0756 154.426 26.8699C154.426 27.8475 154.14 28.6723 153.57 29.3444C153.02 30.0165 152.226 30.5358 151.187 30.9024C150.149 31.2487 148.906 31.4218 147.46 31.4218C146.177 31.4218 145.067 31.2894 144.13 31.0246C143.214 30.7395 142.45 30.3831 141.839 29.9554C141.228 29.5073 140.75 29.0389 140.403 28.5501C140.078 28.041 139.854 27.5624 139.731 27.1143C139.609 26.6662 139.568 26.2997 139.609 26.0145ZM171.333 31.0552V22.7152C171.333 21.8802 171.191 21.1877 170.906 20.6378C170.62 20.0879 170.162 19.6704 169.531 19.3853C168.92 19.1002 168.095 18.9576 167.056 18.9576C166.058 18.9576 165.152 19.1511 164.337 19.5381C163.523 19.9047 162.861 20.3934 162.352 21.0044C161.843 21.5951 161.557 22.2264 161.496 22.8985L161.466 21.2183C161.568 20.5462 161.802 19.8741 162.168 19.202C162.535 18.5299 163.024 17.9189 163.635 17.3691C164.246 16.8192 164.979 16.3813 165.834 16.0554C166.71 15.7092 167.688 15.5361 168.767 15.5361C169.704 15.5361 170.57 15.6583 171.364 15.9027C172.158 16.1267 172.851 16.4831 173.441 16.9719C174.032 17.4607 174.49 18.0717 174.816 18.8049C175.142 19.5177 175.305 20.3629 175.305 21.3405V31.0552H171.333ZM157.739 31.0552V9.76226H161.71V31.0552H157.739Z" fill="white"/>
<defs>
<clipPath id="clip0_1201_49049">
<rect width="41.8799" height="41.8799" fill="white" transform="matrix(-1 0 0 1 41.8799 0)"/>
</clipPath>
</defs>
</svg>
