<svg width="103" height="46" viewBox="0 0 103 46" fill="none" xmlns="http://www.w3.org/2000/svg">
<g clip-path="url(#clip0_13_44)">
<path d="M27.0682 8.55957H37.4973V10.4057H33.3966V20.7839H31.1416V10.4057H27.0591V8.55957H27.0682ZM37.0518 11.9327H38.9794V13.6408H39.0157C39.0794 13.3993 39.1976 13.1663 39.3703 12.942C39.5431 12.7177 39.7522 12.5021 39.9977 12.3209C40.2432 12.1311 40.516 11.9844 40.8161 11.8637C41.1161 11.7515 41.4253 11.6911 41.7344 11.6911C41.9708 11.6911 42.1436 11.6998 42.2345 11.7084C42.3254 11.717 42.4163 11.7343 42.5164 11.7429V13.6236C42.3709 13.5977 42.2254 13.5804 42.0708 13.5632C41.9162 13.5459 41.7708 13.5373 41.6253 13.5373C41.2798 13.5373 40.9524 13.6063 40.6433 13.7357C40.3342 13.8651 40.0705 14.0635 39.8432 14.3137C39.6158 14.5725 39.434 14.8831 39.2976 15.2627C39.1612 15.6422 39.0976 16.0736 39.0976 16.5653V20.7752H37.0427V11.9327H37.0518ZM51.9635 20.7839H49.9449V19.5502H49.9086C49.654 19.9988 49.2812 20.3525 48.7811 20.62C48.281 20.8874 47.7718 21.0254 47.2536 21.0254C46.0261 21.0254 45.135 20.7407 44.5894 20.1627C44.0439 19.5847 43.7711 18.7134 43.7711 17.5488V11.9327H45.826V17.359C45.826 18.1354 45.9806 18.6875 46.2988 19.0067C46.608 19.3259 47.0535 19.4898 47.6173 19.4898C48.0537 19.4898 48.4083 19.4294 48.6993 19.3C48.9902 19.1706 49.2266 19.0067 49.3994 18.7911C49.5812 18.584 49.7085 18.3252 49.7904 18.0319C49.8722 17.7386 49.9086 17.4194 49.9086 17.0743V11.9413H51.9635V20.7839ZM55.4641 17.9456C55.5277 18.515 55.7551 18.9118 56.146 19.1448C56.5461 19.3691 57.0189 19.4898 57.5736 19.4898C57.7645 19.4898 57.9827 19.4726 58.2282 19.4467C58.4737 19.4208 58.7101 19.3604 58.9192 19.2828C59.1375 19.2051 59.3102 19.0844 59.4557 18.9291C59.5921 18.7738 59.6557 18.5754 59.6466 18.3252C59.6376 18.075 59.5375 17.868 59.3557 17.7127C59.1738 17.5488 58.9465 17.428 58.6647 17.3245C58.3828 17.2296 58.0646 17.1433 57.7008 17.0743C57.3371 17.0053 56.9735 16.9277 56.6007 16.85C56.2188 16.7724 55.846 16.6688 55.4914 16.5567C55.1368 16.4445 54.8185 16.2893 54.5367 16.0908C54.2548 15.9011 54.0275 15.6509 53.8638 15.3489C53.6911 15.047 53.6092 14.676 53.6092 14.2274C53.6092 13.7443 53.7365 13.3475 53.982 13.0197C54.2275 12.6918 54.5457 12.433 54.9185 12.2346C55.3004 12.0362 55.7187 11.8982 56.1824 11.8119C56.6461 11.7343 57.0917 11.6911 57.5099 11.6911C57.9918 11.6911 58.4555 11.7429 58.892 11.8378C59.3284 11.9327 59.7285 12.088 60.0831 12.3123C60.4377 12.5279 60.7287 12.8126 60.9651 13.1577C61.2015 13.5028 61.347 13.9255 61.4106 14.4172H59.2648C59.1647 13.9514 58.9465 13.6322 58.5919 13.4769C58.2373 13.313 57.8281 13.2353 57.3735 13.2353C57.228 13.2353 57.0553 13.244 56.8552 13.2699C56.6552 13.2957 56.4734 13.3389 56.2915 13.3993C56.1188 13.4596 55.9733 13.5545 55.846 13.6753C55.7278 13.7961 55.6641 13.9514 55.6641 14.1498C55.6641 14.3913 55.7551 14.5811 55.9278 14.7278C56.1006 14.8745 56.3279 14.9952 56.6097 15.0988C56.8916 15.1936 57.2099 15.2799 57.5736 15.3489C57.9373 15.4179 58.3101 15.4956 58.6919 15.5732C59.0647 15.6509 59.4284 15.7544 59.7921 15.8665C60.1558 15.9787 60.4741 16.134 60.7559 16.3324C61.0378 16.5308 61.2651 16.7724 61.4379 17.0657C61.6106 17.359 61.7016 17.73 61.7016 18.1613C61.7016 18.6875 61.5743 19.1275 61.3197 19.4985C61.0651 19.8608 60.7378 20.1627 60.3377 20.387C59.9376 20.6113 59.483 20.7839 58.992 20.8874C58.501 20.9909 58.01 21.0427 57.5281 21.0427C56.9371 21.0427 56.3915 20.9823 55.8914 20.8529C55.3914 20.7235 54.9549 20.5337 54.5912 20.2835C54.2275 20.0247 53.9366 19.7055 53.7274 19.3259C53.5183 18.9463 53.4092 18.4891 53.391 17.9629H55.4641V17.9456ZM62.2471 11.9327H63.8019V9.2756H65.8568V11.9327H67.7117V13.3906H65.8568V18.1182C65.8568 18.3252 65.8659 18.4977 65.8841 18.653C65.9023 18.7997 65.9478 18.9291 66.0114 19.0326C66.0751 19.1361 66.1751 19.2138 66.3115 19.2655C66.4478 19.3173 66.6206 19.3432 66.857 19.3432C67.0025 19.3432 67.148 19.3432 67.2935 19.3346C67.4389 19.3259 67.5844 19.3087 67.7299 19.2742V20.7839C67.5026 20.8098 67.2753 20.827 67.0661 20.8529C66.8479 20.8788 66.6297 20.8874 66.4024 20.8874C65.8568 20.8874 65.4204 20.8356 65.0931 20.7407C64.7657 20.6458 64.5021 20.4992 64.3202 20.3094C64.1293 20.1196 64.0111 19.8867 63.9383 19.602C63.8747 19.3173 63.8292 18.9895 63.8201 18.6271V13.4079H62.2653V11.9327H62.2471ZM69.1665 11.9327H71.1123V13.1318H71.1487C71.4396 12.6142 71.8397 12.2519 72.358 12.0276C72.8763 11.8033 73.4309 11.6911 74.0401 11.6911C74.7766 11.6911 75.4131 11.8119 75.9586 12.0621C76.5042 12.3036 76.9588 12.6401 77.3225 13.0714C77.6862 13.5028 77.9499 14.0031 78.1317 14.5725C78.3136 15.1419 78.4045 15.7544 78.4045 16.4014C78.4045 16.9967 78.3227 17.5747 78.159 18.1268C77.9953 18.6875 77.7498 19.1793 77.4225 19.6106C77.0952 20.042 76.6769 20.3784 76.1677 20.6372C75.6586 20.896 75.0676 21.0254 74.3765 21.0254C74.0765 21.0254 73.7764 20.9995 73.4764 20.9478C73.1763 20.896 72.8853 20.8098 72.6126 20.6976C72.3398 20.5855 72.0761 20.4388 71.8488 20.2576C71.6124 20.0765 71.4215 19.8694 71.2578 19.6365H71.2214V24.0535H69.1665V11.9327ZM76.3496 16.3669C76.3496 15.9701 76.295 15.5819 76.1859 15.2023C76.0768 14.8227 75.9132 14.4949 75.6949 14.2016C75.4767 13.9082 75.2039 13.6753 74.8857 13.5028C74.5584 13.3302 74.1856 13.2353 73.7673 13.2353C72.9035 13.2353 72.2489 13.52 71.8124 14.0894C71.376 14.6588 71.1578 15.4179 71.1578 16.3669C71.1578 16.8155 71.2123 17.2296 71.3305 17.6092C71.4487 17.9888 71.6124 18.3166 71.8488 18.5926C72.0761 18.8687 72.3489 19.0844 72.6671 19.2397C72.9854 19.4036 73.3582 19.4812 73.7764 19.4812C74.2492 19.4812 74.6402 19.3863 74.9675 19.2051C75.2949 19.024 75.5585 18.7824 75.7677 18.4977C75.9768 18.2044 76.1314 17.8766 76.2223 17.5057C76.3041 17.1347 76.3496 16.7551 76.3496 16.3669ZM79.9775 8.55957H82.0324V10.4057H79.9775V8.55957ZM79.9775 11.9327H82.0324V20.7839H79.9775V11.9327ZM83.8691 8.55957H85.924V20.7839H83.8691V8.55957ZM92.2251 21.0254C91.4795 21.0254 90.8158 20.9046 90.2339 20.6717C89.652 20.4388 89.1609 20.111 88.7518 19.7055C88.3517 19.2914 88.0426 18.7997 87.8334 18.2303C87.6243 17.6609 87.5152 17.0312 87.5152 16.3496C87.5152 15.6768 87.6243 15.0556 87.8334 14.4862C88.0426 13.9169 88.3517 13.4251 88.7518 13.011C89.1519 12.597 89.652 12.2778 90.2339 12.0448C90.8158 11.8119 91.4795 11.6911 92.2251 11.6911C92.9707 11.6911 93.6345 11.8119 94.2164 12.0448C94.7983 12.2778 95.2893 12.6056 95.6985 13.011C96.0985 13.4251 96.4077 13.9169 96.6168 14.4862C96.8259 15.0556 96.9351 15.6768 96.9351 16.3496C96.9351 17.0312 96.8259 17.6609 96.6168 18.2303C96.4077 18.7997 96.0985 19.2914 95.6985 19.7055C95.2984 20.1196 94.7983 20.4388 94.2164 20.6717C93.6345 20.9046 92.9707 21.0254 92.2251 21.0254ZM92.2251 19.4812C92.6797 19.4812 93.0798 19.3863 93.4163 19.2051C93.7527 19.024 94.0254 18.7824 94.2437 18.4891C94.4619 18.1958 94.6165 17.8594 94.7256 17.4884C94.8256 17.1174 94.8801 16.7379 94.8801 16.3496C94.8801 15.9701 94.8256 15.5991 94.7256 15.2195C94.6256 14.8399 94.4619 14.5121 94.2437 14.2188C94.0254 13.9255 93.7527 13.6926 93.4163 13.5114C93.0798 13.3302 92.6797 13.2353 92.2251 13.2353C91.7705 13.2353 91.3704 13.3302 91.034 13.5114C90.6976 13.6926 90.4248 13.9341 90.2066 14.2188C89.9884 14.5121 89.8338 14.8399 89.7247 15.2195C89.6247 15.5991 89.5701 15.9701 89.5701 16.3496C89.5701 16.7379 89.6247 17.1174 89.7247 17.4884C89.8247 17.8594 89.9884 18.1958 90.2066 18.4891C90.4248 18.7824 90.6976 19.024 91.034 19.2051C91.3704 19.3949 91.7705 19.4812 92.2251 19.4812ZM97.5351 11.9327H99.09V9.2756H101.145V11.9327H103V13.3906H101.145V18.1182C101.145 18.3252 101.154 18.4977 101.172 18.653C101.19 18.7997 101.236 18.9291 101.299 19.0326C101.363 19.1361 101.463 19.2138 101.6 19.2655C101.736 19.3173 101.909 19.3432 102.145 19.3432C102.291 19.3432 102.436 19.3432 102.581 19.3346C102.727 19.3259 102.872 19.3087 103.018 19.2742V20.7839C102.791 20.8098 102.563 20.827 102.354 20.8529C102.136 20.8788 101.918 20.8874 101.69 20.8874C101.145 20.8874 100.708 20.8356 100.381 20.7407C100.054 20.6458 99.7901 20.4992 99.6082 20.3094C99.4173 20.1196 99.2991 19.8867 99.2264 19.602C99.1627 19.3173 99.1173 18.9895 99.1082 18.6271V13.4079H97.5533V11.9327H97.5351Z" fill="#222222"/>
<path d="M24.668 8.55933H15.2481L12.3385 0.0532227L9.41984 8.55933L0 8.55071L7.62862 13.8131L4.70992 22.3106L12.3385 17.0568L19.9581 22.3106L17.0485 13.8131L24.668 8.55933Z" fill="#00B67A"/>
<path d="M17.703 15.7368L17.0483 13.813L12.3384 17.0567L17.703 15.7368Z" fill="#005128"/>
</g>
<g clip-path="url(#clip1_13_44)">
<path d="M19.3125 46H0V27H19.3125V46Z" fill="#00B67A"/>
<path d="M40.2344 46H20.9219V27H40.2344V46Z" fill="#00B67A"/>
<path d="M61.1562 46H41.8438V27H61.1562V46Z" fill="#00B67A"/>
<path d="M82.0781 46H62.7656V27H82.0781V46Z" fill="#00B67A"/>
<path d="M103 46H83.6875V27H103V46Z" fill="#DCDCE6"/>
<path d="M9.65635 33.195L12.5935 33.9273L13.8206 30.2064L9.65635 33.195ZM16.4157 38.0044H11.2456L9.65635 42.7939L8.06709 38.0044H2.89697L7.08135 35.0356L5.49209 30.246L9.67646 33.2148L12.2515 35.0356L16.4157 38.0044Z" fill="white"/>
<path d="M30.5782 33.195L33.5153 33.9273L34.7425 30.2064L30.5782 33.195ZM37.3376 38.0044H32.1675L30.5782 42.7939L28.989 38.0044H23.8188L28.0032 35.0356L26.414 30.246L30.5983 33.2148L33.1733 35.0356L37.3376 38.0044Z" fill="white"/>
<path d="M51.5001 33.195L54.4372 33.9273L55.6644 30.2064L51.5001 33.195ZM58.2595 38.0044H53.0894L51.5001 42.7939L49.9108 38.0044H44.7407L48.9251 35.0356L47.3358 30.246L51.5202 33.2148L54.0952 35.0356L58.2595 38.0044Z" fill="white"/>
<path d="M72.422 33.195L75.3591 33.9273L76.5862 30.2064L72.422 33.195ZM79.1813 38.0044H74.0112L72.422 42.7939L70.8327 38.0044H65.6626L69.847 35.0356L68.2577 30.246L72.4421 33.2148L75.0171 35.0356L79.1813 38.0044Z" fill="white"/>
<path d="M93.3438 33.195L96.281 33.9273L97.5081 30.2064L93.3438 33.195ZM100.103 38.0044H94.9331L93.3438 42.7939L91.7546 38.0044H86.5845L90.7689 35.0356L89.1796 30.246L93.364 33.2148L95.939 35.0356L100.103 38.0044Z" fill="white"/>
</g>
<defs>
<clipPath id="clip0_13_44">
<rect width="103" height="24" fill="white" transform="translate(0 0.0532227)"/>
</clipPath>
<clipPath id="clip1_13_44">
<rect width="103" height="19" fill="white" transform="matrix(1 0 0 -1 0 46)"/>
</clipPath>
</defs>
</svg>
