<svg width="96" height="72" viewBox="0 0 96 72" fill="none" xmlns="http://www.w3.org/2000/svg">
<path d="M0.374594 52.6688C0.374595 63.1875 8.90585 71.7188 19.4246 71.7188C29.9434 71.7188 38.4746 63.1875 38.4746 52.6687C38.4746 42.15 29.9434 33.6187 19.4246 33.6188C16.2746 33.6188 13.3683 34.4438 10.7433 35.7938C14.1183 20.9438 27.4121 9.80625 43.2746 9.80625C45.8996 9.80625 48.0371 7.66875 48.0371 5.04375C48.0371 2.41875 45.8996 0.28125 43.2746 0.28125C19.6121 0.281252 0.374591 19.5188 0.374593 43.1813L0.374594 52.6688Z" fill="#141414"/>
<path d="M47.9625 52.6688C47.9625 63.1875 56.4937 71.7188 67.0125 71.7188C77.5312 71.7188 86.0625 63.1875 86.0625 52.6687C86.0625 42.15 77.5312 33.6187 67.0125 33.6188C63.8625 33.6188 60.9562 34.4438 58.3312 35.7938C61.7062 20.9438 75 9.80625 90.8625 9.80625C93.4875 9.80625 95.625 7.66875 95.625 5.04375C95.625 2.41875 93.4875 0.28125 90.8625 0.28125C67.2 0.281252 47.9625 19.5188 47.9625 43.1813L47.9625 52.6688Z" fill="#141414"/>
</svg>
